<?xml version="1.0" encoding="UTF-8"?><svg id="Layer_2" xmlns="http://www.w3.org/2000/svg" viewBox="0 0 88.25 89.49"><defs><style>.cls-1{fill:#fff;}</style></defs><g id="Layer_1-2"><path class="cls-1" d="M37.54,64.71c-.13,0-.27-.14-.4-.42-.13-.28-.27-.59-.4-.92l-11.38-26.98c-.37-.83-.81-1.52-1.34-2.06-.53-.55-1.24-.94-2.14-1.17-.46-.17-.84-.32-1.14-.47-.3-.15-.45-.36-.45-.62,0-.23.14-.39.42-.47.28-.08.6-.12.97-.12.83,0,1.68.02,2.56.07.88.05,1.75.07,2.61.07.96,0,1.89-.02,2.78-.07.89-.05,1.69-.07,2.38-.07.43,0,.78.05,1.04.15.26.1.4.25.4.45,0,.27-.13.46-.4.6-.27.13-.66.28-1.19.45-.46.1-.75.3-.87.6-.12.3-.17.63-.17.99,0,.43.05.84.15,1.24.1.4.17.61.2.65.73,1.79,1.41,3.47,2.04,5.04.63,1.57,1.26,3.1,1.89,4.57.63,1.47,1.28,2.98,1.94,4.52.66,1.54,1.37,3.19,2.14,4.94.17.36.31.55.42.55s.24-.17.37-.5l3.48-8c.1-.23.17-.44.22-.62.05-.18.08-.34.08-.47,0-.17-.03-.35-.1-.55-.07-.2-.15-.43-.25-.7l-3.63-8.45c-.4-.96-1.02-1.77-1.86-2.43-.84-.66-1.71-1.11-2.61-1.34-.46-.17-.83-.32-1.09-.47-.27-.15-.4-.36-.4-.62,0-.23.12-.39.37-.47.25-.08.55-.12.92-.12.6,0,1.2.02,1.81.05.61.03,1.23.06,1.86.07.63.02,1.24.02,1.84.02.83,0,1.63-.02,2.41-.07s1.5-.07,2.16-.07c.46,0,.84.05,1.12.15.28.1.42.25.42.45,0,.27-.14.47-.42.62-.28.15-.58.31-.89.47-.32.17-.54.4-.67.7-.2.1-.31.23-.32.4-.02.17,0,.33.07.5.1.2.24.56.42,1.09.18.53.4,1.1.65,1.71.25.61.48,1.2.7,1.76.21.56.39.98.52,1.24.2.43.36.63.47.6.12-.03.26-.23.42-.6.23-.56.5-1.22.79-1.96.3-.75.56-1.47.8-2.19.23-.71.4-1.2.5-1.47.07-.17.1-.36.1-.6,0-.43-.17-.75-.5-.94s-.67-.39-1.02-.57c-.35-.18-.52-.42-.52-.72,0-.2.11-.35.32-.45.21-.1.55-.15,1.02-.15.76,0,1.28.02,1.57.05.28.03.65.05,1.12.05.53,0,1.01-.03,1.44-.1.43-.07,1.01-.1,1.74-.1.4,0,.74.05,1.02.15.28.1.42.27.42.5,0,.27-.13.46-.4.6-.27.13-.65.27-1.14.4-1.03.23-1.75.56-2.16.97-.42.41-.84.97-1.27,1.66-.2.43-.47,1.01-.82,1.74-.35.73-.7,1.51-1.07,2.34-.37.83-.7,1.61-.99,2.34-.13.3-.22.65-.25,1.07-.03.42,0,.75.1,1.02l4.62,11.63c.1.23.2.31.3.22.1-.08.2-.22.3-.42.96-2.42,2-5.27,3.11-8.55,1.11-3.28,2.21-6.61,3.3-9.99.17-.5.27-.9.32-1.22.05-.31.08-.59.08-.82-.03-.46-.16-.87-.37-1.22-.22-.35-.59-.57-1.12-.67-.33-.1-.68-.23-1.04-.4-.37-.17-.55-.38-.55-.65,0-.2.14-.35.42-.45.28-.1.62-.15,1.02-.15.79,0,1.44.02,1.94.05.5.03,1.03.05,1.59.05.73-.03,1.44-.07,2.14-.12.7-.05,1.41-.07,2.14-.07.43,0,.79.04,1.09.12.3.08.45.26.45.52,0,.23-.15.42-.45.57s-.68.29-1.14.42c-.76.17-1.41.47-1.94.92-.53.45-.94.95-1.24,1.52-.3.56-.56,1.09-.8,1.59l-9.74,26.38c-.07.2-.18.43-.35.7-.17.26-.35.4-.55.4-.17,0-.34-.09-.52-.27-.18-.18-.32-.41-.42-.67-.7-1.59-1.34-3.09-1.94-4.5-.6-1.41-1.2-2.89-1.81-4.45-.61-1.56-1.35-3.31-2.21-5.27-.1-.23-.19-.33-.27-.3-.08.03-.19.2-.32.5-.73,1.69-1.41,3.24-2.04,4.65-.63,1.41-1.25,2.84-1.86,4.3-.61,1.46-1.27,3.05-1.96,4.77-.13.33-.29.65-.47.94-.18.3-.39.45-.62.45Z"/></g></svg>