<?xml version="1.0" encoding="UTF-8"?><svg id="Layer_2" xmlns="http://www.w3.org/2000/svg" viewBox="0 0 88.26 89.49"><defs><style>.cls-1{fill:#231f20;}</style></defs><g id="Layer_1-2"><path class="cls-1" d="M11.98,31.98c-.04.08-.17.14-.38.17-.21.04-.44.06-.69.07l-8.65.26c-.28,0-.53.04-.77.12s-.51.29-.82.63c-.08.09-.17.18-.27.25s-.2.09-.29.04c-.08-.04-.12-.12-.12-.24,0-.12.02-.22.05-.28.12-.25.24-.48.36-.69.12-.21.24-.42.36-.62.12-.2.24-.41.35-.64.13-.26.25-.56.37-.88.12-.33.24-.61.36-.87.04-.08.11-.16.2-.23s.18-.1.26-.06c.09.04.14.13.16.26.01.13,0,.26-.03.39-.05.17-.04.3.04.37.08.08.19.12.33.14.15.02.29.03.44.03l6.56-.1c.11,0,.18-.01.2-.05.02-.04,0-.11-.07-.2l-1.23-1.75-4.4.03c-.22,0-.45.03-.69.07-.25.04-.45.14-.62.32-.09.09-.19.17-.29.24-.1.07-.2.09-.29.04-.09-.04-.13-.12-.12-.23.01-.11.03-.19.07-.26.06-.12.15-.29.27-.53.12-.23.25-.46.39-.69.14-.23.23-.4.29-.52.1-.21.21-.48.34-.82.12-.33.23-.59.32-.78.05-.09.11-.18.2-.27.08-.09.17-.11.26-.07.08.04.13.11.14.23.02.11,0,.24-.03.39-.08.16-.05.31.09.46.14.15.4.22.78.21h2.11s-1.26-1.64-1.26-1.64c-.15-.2-.33-.33-.55-.38-.22-.05-.41,0-.57.17-.12.09-.23.17-.31.24-.08.07-.17.09-.25.05-.08-.04-.12-.11-.13-.21,0-.1.01-.2.07-.31.09-.18.19-.36.31-.53.12-.17.21-.33.28-.47.07-.15.16-.36.27-.65s.21-.54.32-.75c.04-.08.1-.16.17-.23.08-.08.16-.09.25-.05.09.04.15.13.16.25.01.12,0,.24-.02.36-.04.18-.04.43-.02.75.02.32.16.67.42,1.04l1.69,2.41,3.41.03c.11-.01.16-.04.17-.08,0-.03-.01-.08-.06-.14l-3.86-5.24c-.16-.21-.34-.33-.54-.36-.2-.03-.4.08-.61.34-.08.11-.18.19-.27.26-.1.07-.2.07-.3.02-.09-.04-.13-.13-.11-.26.02-.13.05-.23.09-.31.08-.16.19-.35.33-.58.15-.23.25-.41.31-.54.04-.09.09-.22.15-.38.05-.16.11-.32.18-.49s.12-.29.16-.39c.04-.09.11-.18.2-.27.09-.09.18-.11.28-.06.11.05.16.14.16.27,0,.13-.01.26-.04.37-.04.19-.05.43-.01.73.04.3.18.61.44.95l5.4,7.24c.13.14.2.27.22.38.02.11,0,.23-.06.36-.04.08-.11.14-.22.18-.11.04-.24.07-.39.08l-3.71.03,2.13,3.17c.09.14.16.27.2.38.04.11.03.22-.03.34Z"/><path class="cls-1" d="M20.5,19.71c-.73.68-1.56,1.14-2.48,1.37-.92.24-1.83.24-2.72.01-.89-.23-1.67-.7-2.33-1.41-.45-.48-.78-1.05-1-1.69-.22-.65-.32-1.32-.29-2.03.03-.7.19-1.39.49-2.06.3-.67.74-1.27,1.32-1.81.54-.5,1.14-.89,1.8-1.18.66-.29,1.35-.44,2.06-.47.71-.03,1.38.08,2.04.31.65.24,1.23.63,1.74,1.18.61.66,1.02,1.43,1.25,2.33.22.89.2,1.81-.08,2.76-.27.94-.87,1.84-1.78,2.69ZM20.12,18.89c.41-.38.66-.79.77-1.23.1-.44.1-.88-.01-1.34-.11-.46-.3-.9-.57-1.32-.27-.42-.56-.81-.89-1.17-.53-.57-1.13-1.01-1.8-1.33-.67-.32-1.33-.47-1.98-.45s-1.23.26-1.74.73c-.45.42-.7.91-.75,1.48-.05.57.05,1.16.3,1.76.25.61.62,1.17,1.11,1.7.58.62,1.2,1.11,1.86,1.45.66.35,1.31.51,1.95.48.64-.02,1.22-.28,1.75-.77Z"/><path class="cls-1" d="M29.68,13.52c-.91.42-1.83.59-2.78.53s-1.81-.35-2.59-.85c-.78-.5-1.37-1.19-1.77-2.07-.28-.6-.42-1.24-.42-1.92,0-.68.11-1.36.36-2.02.25-.66.62-1.26,1.11-1.8.49-.54,1.1-.98,1.82-1.31.67-.31,1.36-.49,2.08-.55s1.42,0,2.1.2c.68.2,1.29.51,1.83.94.54.43.97.98,1.28,1.66.37.81.52,1.68.45,2.6-.07.92-.38,1.79-.94,2.6-.56.81-1.4,1.48-2.53,2ZM29.58,12.62c.51-.23.88-.54,1.11-.92.24-.38.37-.81.41-1.28.04-.47,0-.95-.12-1.43s-.28-.95-.48-1.39c-.32-.71-.75-1.32-1.29-1.83-.54-.51-1.12-.86-1.74-1.05-.63-.19-1.25-.14-1.88.15-.56.26-.95.65-1.18,1.17-.23.52-.32,1.11-.27,1.77.05.65.22,1.31.52,1.96.35.77.79,1.43,1.31,1.96.52.54,1.09.89,1.7,1.07.61.18,1.25.12,1.9-.18Z"/><path class="cls-1" d="M34.74,11.01c-.09.01-.18,0-.29-.05-.11-.05-.17-.1-.18-.18-.01-.12.03-.21.12-.28.09-.07.2-.12.31-.15.37-.1.66-.25.88-.43.21-.18.3-.45.26-.8l-.76-6.22c-.05-.41-.17-.71-.35-.9-.19-.19-.5-.3-.95-.32-.12-.01-.24-.05-.35-.11-.11-.06-.17-.13-.18-.22-.01-.09.03-.16.12-.22.09-.06.18-.1.26-.11.26-.03.52-.06.77-.07.25-.02.5-.03.74-.03.24,0,.47-.02.69-.05.17-.02.41-.06.71-.12.29-.06.59-.12.89-.18.29-.06.52-.1.68-.12,1.32-.16,2.48-.15,3.47.02.99.18,1.79.58,2.4,1.21.61.63.98,1.56,1.12,2.8.13,1.08-.05,2.04-.56,2.89-.5.85-1.21,1.54-2.13,2.08-.92.53-1.96.87-3.12,1.01-.19.02-.42.04-.7.05-.28.01-.57.02-.87.04-.3.01-.57.04-.8.06-.25.03-.49.07-.72.12-.23.05-.46.1-.7.15-.24.05-.49.09-.75.12ZM39.68,9.7c.73-.09,1.33-.35,1.8-.8.47-.44.8-1,.99-1.67s.24-1.37.16-2.1c-.11-.92-.35-1.69-.72-2.33-.37-.63-.85-1.1-1.46-1.38-.61-.29-1.33-.38-2.14-.28-.31.04-.57.15-.78.34-.21.19-.3.43-.27.72l.77,6.35c.05.39.22.7.51.91.29.22.67.3,1.14.24Z"/><path class="cls-1" d="M46.16,9.88c-.07-.01-.15-.05-.23-.12-.08-.07-.11-.13-.1-.21.02-.1.07-.17.17-.22.1-.04.21-.07.35-.07.37-.01.69-.06.94-.16.25-.1.41-.33.47-.69l1.05-6.14c.07-.39.04-.71-.08-.95-.12-.24-.41-.45-.85-.61-.11-.05-.21-.12-.29-.2-.08-.09-.11-.19-.09-.31.01-.09.08-.14.19-.17.11-.03.2-.03.27-.02.26.05.51.1.77.15.25.06.5.12.76.19.26.07.51.12.75.16.23.04.48.07.73.09.26.02.52.05.79.08.27.03.53.07.77.11.09.02.17.06.26.12.08.07.12.14.11.23-.02.1-.08.18-.19.22-.11.05-.23.08-.35.08-.42,0-.73.11-.92.31-.2.2-.33.52-.41.93l-1.03,6.01c-.06.35-.04.59.04.72.09.13.26.22.5.26l1.84.32c.32.05.59.05.83-.02.23-.06.46-.2.69-.42.22-.21.47-.51.74-.88.04-.05.1-.11.18-.18.08-.07.17-.09.27-.08.1.02.16.07.17.15.02.08.02.17,0,.26-.02.1-.07.25-.15.44-.09.19-.18.4-.28.62-.1.22-.2.43-.3.62-.09.19-.16.34-.21.43-.02.06-.08.11-.17.16-.09.05-.17.07-.24.06-.4-.07-.84-.15-1.3-.23-.46-.09-.94-.17-1.43-.27-.49-.09-.97-.18-1.44-.28-.47-.1-.92-.18-1.35-.25-.36-.05-.71-.09-1.05-.11-.34-.03-.73-.08-1.18-.16Z"/><path class="cls-1" d="M60.5,14.01c-.08-.04-.15-.1-.21-.19-.06-.09-.08-.17-.04-.25.05-.1.13-.16.25-.17.11-.01.22,0,.33.04.41.09.71.09.89,0,.18-.08.29-.3.33-.66l.19-1.13c.03-.09.02-.15-.02-.19-.04-.04-.12-.1-.25-.16l-2.85-1.39c-.09-.05-.17-.06-.23-.04s-.13.06-.21.12c-.27.23-.47.4-.6.54-.13.13-.24.27-.32.41-.15.24-.18.44-.11.62.08.18.24.37.5.58.09.08.17.16.23.25.06.09.07.19.02.29-.04.08-.11.12-.22.13s-.2-.01-.28-.05c-.26-.13-.47-.24-.63-.34-.16-.1-.3-.19-.45-.28-.14-.09-.33-.19-.55-.29-.2-.1-.37-.17-.51-.23-.15-.05-.29-.11-.44-.15-.15-.05-.35-.14-.62-.27-.08-.04-.16-.1-.23-.19-.07-.09-.09-.17-.04-.27.05-.11.13-.16.24-.15.11,0,.22.02.33.04.22.06.43.1.63.11.2.02.42-.01.64-.08.22-.07.47-.22.74-.44l4.92-4.26c.31-.26.5-.48.58-.66.08-.18.15-.28.2-.28.12-.02.3-.05.53-.08.23-.04.46-.07.68-.11.22-.04.37-.06.44-.08.17-.05.3-.07.4-.06.1,0,.16.02.2.04.05.03.08.07.09.14,0,.07,0,.16-.02.26l-.81,8.37c-.04.34-.03.68.01,1.02.05.34.24.63.57.88.09.06.16.14.23.23.07.1.07.2.02.3-.04.08-.11.12-.21.12-.11,0-.2-.02-.28-.06-.37-.18-.7-.36-.99-.53-.29-.17-.61-.35-.95-.51-.21-.1-.43-.2-.66-.3s-.47-.19-.71-.28c-.24-.09-.5-.21-.78-.34ZM59.92,9.34l2.19,1.07c.11.05.17.07.2.05.03-.02.05-.08.07-.19.04-.18.07-.42.11-.74.03-.32.06-.66.08-1.02.02-.36.05-.71.09-1.04.04-.33.07-.61.1-.82.02-.14.01-.21-.02-.23-.03-.02-.11.02-.22.11-.38.34-.82.73-1.33,1.19-.51.45-.98.89-1.41,1.3-.07.06-.09.12-.07.17.02.05.08.1.2.16Z"/><path class="cls-1" d="M71.44,22.89c-.13-.12-.22-.25-.29-.4-.07-.15-.11-.3-.13-.47-.02-.17-.02-.37,0-.6l.59-8.37c0-.16,0-.29-.02-.41-.02-.12-.04-.19-.07-.22-.03-.03-.09-.02-.16.03-.08.05-.17.13-.28.25-.41.42-.83.86-1.26,1.32-.43.46-.83.9-1.2,1.31-.37.41-.68.77-.96,1.08-.23.28-.34.55-.32.79.02.24.15.54.4.9.06.08.11.18.15.3.04.12.02.22-.06.31-.06.06-.14.08-.24.04-.1-.04-.18-.08-.24-.14-.31-.3-.52-.52-.65-.69-.13-.16-.32-.37-.57-.61-.28-.26-.52-.48-.74-.65-.22-.17-.46-.39-.73-.64-.05-.05-.1-.12-.14-.22s-.03-.18.03-.24c.08-.08.17-.11.28-.08.1.03.2.08.3.15.28.19.56.31.82.36.26.05.53-.06.82-.31.12-.11.31-.28.57-.53.26-.25.56-.54.9-.87.34-.33.7-.68,1.07-1.05.37-.37.72-.72,1.06-1.06s.62-.63.85-.87c.13-.14.21-.33.24-.56.03-.24,0-.5-.05-.77-.06-.27-.17-.51-.32-.72-.07-.12-.11-.24-.13-.36-.02-.11,0-.2.06-.27.06-.06.14-.08.25-.04.1.04.19.09.25.15.14.13.29.28.46.46.17.17.36.36.56.57.21.21.42.42.63.64.22.22.43.43.63.62.08.08.13.18.14.29,0,.11,0,.21,0,.3l-.46,8.01c0,.05-.02.12-.03.2,0,.08,0,.14.03.17.03.03.07.04.11.01.04-.02.09-.06.15-.13l2.94-3.19c.28-.32.45-.62.49-.9.04-.29-.08-.63-.36-1.04-.06-.1-.11-.21-.14-.33-.03-.12,0-.22.06-.29.06-.06.14-.07.25-.04.1.04.18.09.24.14.23.22.41.4.52.53.12.13.23.26.34.39.11.13.26.28.44.45.18.17.33.3.44.39.11.09.23.18.36.28.13.1.29.24.47.43.06.06.11.14.15.25.03.1.02.18-.03.23-.07.07-.17.1-.29.08-.12-.02-.23-.07-.34-.13-.36-.24-.67-.33-.94-.28-.27.06-.54.23-.83.53l-5.11,5.16c-.2.21-.39.35-.57.42-.17.06-.31.05-.41-.04Z"/><path class="cls-1" d="M72.64,23.72c-.04-.08-.06-.18-.06-.29,0-.12.04-.19.1-.23.1-.06.21-.05.31.01.1.06.18.14.25.24.23.31.47.53.72.67.25.13.53.12.84-.05l5.53-2.96c.36-.19.6-.41.71-.65.11-.24.1-.58-.05-1-.03-.12-.04-.24-.02-.36.02-.12.06-.21.14-.25.08-.04.16-.03.25.03.09.06.16.13.2.21.12.23.24.46.34.69.1.23.2.45.3.68.09.22.19.43.3.63.08.16.21.36.37.62.16.25.32.51.48.76.16.25.28.45.36.59.63,1.18,1.04,2.26,1.24,3.24.2.99.11,1.88-.25,2.67-.37.79-1.1,1.48-2.21,2.05-.96.51-1.92.69-2.9.53-.98-.16-1.88-.57-2.71-1.23-.83-.66-1.52-1.51-2.07-2.54-.09-.17-.19-.38-.3-.64-.11-.26-.23-.52-.35-.8-.12-.27-.24-.52-.35-.72-.12-.22-.24-.43-.37-.62-.13-.2-.26-.4-.4-.6-.13-.2-.26-.42-.39-.65ZM75.65,27.85c.35.65.81,1.11,1.39,1.39.58.28,1.22.39,1.92.32.7-.07,1.37-.27,2.01-.62.82-.44,1.45-.94,1.91-1.51.46-.57.71-1.19.76-1.87.05-.67-.12-1.37-.51-2.1-.15-.27-.34-.47-.6-.6-.25-.13-.51-.13-.77.01l-5.64,3.02c-.35.19-.57.46-.67.8-.1.35-.03.73.19,1.15Z"/><path class="cls-1" d="M.31,42.73c0-.09.02-.18.06-.28.05-.1.12-.15.2-.15.12,0,.21.05.27.15.06.11.11.21.14.31.09.35.21.64.35.87.15.23.4.34.75.32l6.22-.25c.4-.02.7-.11.91-.28s.35-.48.4-.92c.02-.12.07-.23.14-.33s.16-.15.26-.15c.09,0,.16.04.21.13.06.09.08.18.09.27.01.25.01.48,0,.7,0,.22-.02.44-.03.66-.01.22-.02.43,0,.64.02.51.05,1.04.07,1.58.03.54.06,1.06.09,1.56s.05.94.08,1.33c.02.39.04.68.04.87,0,.06,0,.13-.03.21-.03.08-.08.12-.17.13-.48.03-.9.09-1.24.18s-.61.14-.8.14c-.06,0-.12-.01-.2-.05-.08-.03-.11-.07-.11-.12,0-.06.02-.13.08-.22.05-.09.15-.17.28-.23.42-.19.75-.39,1-.58.25-.19.37-.5.35-.93l-.07-1.8c0-.13-.05-.27-.14-.4-.09-.14-.22-.2-.42-.19l-2.75.11c-.1,0-.21.04-.32.1-.11.06-.16.14-.16.23l.06,1.49c0,.23.09.41.25.53.16.12.39.22.71.31.09.04.17.09.24.14.07.06.1.12.11.19,0,.07-.03.14-.09.19-.06.05-.15.08-.25.07-.22-.02-.44-.03-.66-.04s-.43,0-.62,0c-.22,0-.42.03-.6.06-.18.03-.4.06-.65.08-.1.02-.2.01-.3-.02-.1-.03-.15-.09-.15-.16,0-.12.05-.21.18-.27.12-.06.22-.11.29-.14.29-.08.48-.2.58-.34.1-.14.15-.3.16-.46.02-.21.03-.45.01-.72-.01-.27-.02-.52-.03-.74,0-.18-.03-.3-.08-.36-.05-.06-.16-.09-.33-.09l-2.53.1c-.34.01-.56.07-.66.16-.1.09-.14.28-.13.58l.08,1.93c.02.45.18.84.49,1.17.31.32.65.55,1.02.69.06.03.13.06.21.11.08.05.13.12.13.2,0,.09-.04.15-.11.18-.08.03-.16.05-.25.05-.31,0-.63-.04-.97-.1-.34-.07-.67-.15-1-.23-.09-.01-.17-.06-.24-.14-.07-.09-.11-.18-.11-.28-.02-.41-.03-.85-.04-1.32-.01-.47-.02-.94-.04-1.42-.01-.48-.02-.95-.03-1.43,0-.48-.01-.93-.03-1.35,0-.25-.03-.5-.06-.76-.03-.26-.06-.51-.08-.76-.03-.25-.04-.5-.05-.75Z"/><path class="cls-1" d="M1.84,57.01c-.16-.54-.23-1-.23-1.4,0-.4,0-.77.03-1.11,0-.12,0-.2.04-.24s.07-.08.1-.12c.12-.11.3-.23.53-.36.23-.13.48-.25.75-.36.27-.11.53-.2.77-.27.1-.03.21-.04.34-.04.13,0,.21.06.24.17.04.14,0,.26-.1.36-.11.1-.21.19-.29.26-.24.22-.5.49-.78.81-.28.32-.5.67-.66,1.05-.16.38-.17.78-.05,1.21.17.6.45.99.83,1.17.38.17.75.21,1.12.1.31-.09.56-.25.75-.48.19-.23.35-.57.46-1.02l.54-1.87c.17-.63.42-1.17.74-1.62.33-.45.8-.77,1.42-.95.58-.17,1.12-.13,1.61.11.5.24.92.6,1.28,1.1.36.49.62,1.02.78,1.58.14.48.23.91.26,1.3.04.39.06.68.07.87,0,.11-.02.2-.06.27-.04.07-.11.14-.22.2-.22.13-.48.23-.78.33-.29.09-.61.19-.94.31-.07.02-.17.01-.29-.02s-.2-.09-.22-.18c-.02-.08,0-.19.06-.3.06-.12.14-.21.23-.26.42-.23.73-.5.91-.8.19-.31.29-.6.32-.9.03-.29.01-.54-.05-.75-.14-.48-.38-.82-.71-1.02s-.68-.25-1.03-.15c-.38.11-.65.31-.81.59-.16.28-.3.66-.41,1.11l-.54,2.08c-.16.55-.41,1.03-.75,1.43-.34.4-.79.69-1.33.85-.41.12-.87.09-1.4-.08-.52-.17-1.02-.5-1.49-.98-.47-.48-.82-1.14-1.06-1.97Z"/><path class="cls-1" d="M5.77,66.26c-.05-.07-.08-.17-.1-.28-.02-.11.01-.19.09-.24.1-.06.2-.06.31,0,.11.06.19.13.26.21.27.3.53.51.78.64.25.13.52.11.82-.08l5.75-3.58c.26-.16.4-.3.41-.4.01-.1-.06-.28-.21-.53l-.56-.9c-.14-.22-.38-.38-.73-.48-.35-.09-.66-.14-.92-.15-.09,0-.19,0-.3,0-.12,0-.23-.03-.34-.06-.11-.04-.19-.09-.23-.17-.03-.05-.04-.1-.03-.16,0-.06.04-.1.09-.13.09-.05.19-.1.32-.12s.35-.1.66-.2c.31-.11.75-.3,1.32-.59.15-.07.26-.09.33-.05.08.04.13.08.16.13.04.06.06.14.05.23,0,.09,0,.21,0,.36.02.16.05.34.11.54s.18.44.37.74l2.59,4.17c.24.39.47.69.69.9.22.22.42.39.59.53.1.08.19.14.27.21.08.06.14.12.17.17.04.06.04.13.02.2-.03.07-.06.12-.11.15-.36.22-.66.42-.88.59s-.41.3-.55.41c-.14.11-.29.21-.46.31-.04.02-.13.05-.28.09s-.24.01-.28-.08c-.04-.09-.04-.19,0-.3.04-.1.11-.22.22-.36.26-.3.43-.6.49-.9.06-.3,0-.6-.19-.92l-.71-1.14c-.1-.16-.24-.25-.42-.27-.18-.02-.34.01-.46.09l-5.76,3.58c-.29.18-.43.41-.43.71,0,.29.07.62.21.98.04.09.07.2.08.31,0,.11-.04.2-.13.26-.08.05-.16.04-.24-.02-.09-.06-.15-.12-.2-.2-.13-.21-.27-.44-.41-.69s-.27-.5-.41-.76c-.13-.26-.27-.5-.42-.74-.15-.24-.3-.46-.46-.68-.16-.22-.32-.44-.48-.67-.16-.23-.31-.46-.45-.68Z"/><path class="cls-1" d="M14.12,77.05c-.06-.06-.11-.15-.14-.25-.03-.1-.02-.19.05-.25.08-.08.18-.11.29-.09s.21.07.3.15c.36.21.65.31.84.29.2-.02.37-.19.53-.52l.54-1.02c.05-.07.06-.14.04-.19-.02-.05-.08-.13-.19-.23l-2.26-2.22c-.07-.07-.14-.11-.2-.11-.06,0-.14.02-.23.05-.33.13-.58.23-.74.32-.17.08-.31.18-.43.28-.22.18-.32.36-.3.56s.11.43.29.71c.06.1.11.21.14.31.03.1,0,.2-.08.28-.06.06-.14.08-.25.05-.1-.03-.19-.08-.25-.14-.21-.21-.37-.38-.49-.52-.12-.15-.23-.28-.34-.41-.11-.13-.25-.28-.43-.46-.16-.15-.29-.28-.42-.38-.12-.1-.24-.19-.37-.28-.13-.09-.29-.24-.5-.45-.06-.06-.11-.15-.16-.25-.04-.1-.03-.19.05-.26.08-.08.18-.1.28-.06.1.04.2.09.3.14.19.12.38.23.56.31.19.08.4.12.63.13.23,0,.51-.06.85-.19l6.02-2.47c.37-.15.62-.29.76-.44.13-.15.23-.21.28-.2.12.02.3.05.53.09.23.04.46.08.68.11.22.03.37.06.44.07.18,0,.31.03.4.07.09.04.15.07.18.1.04.04.05.1.04.16-.02.07-.05.15-.1.24l-3.43,7.68c-.14.31-.25.64-.31.97-.06.34.02.68.26,1.02.06.08.11.18.14.29.03.11,0,.21-.08.3-.06.06-.14.08-.24.04-.1-.04-.18-.08-.24-.15-.29-.29-.55-.56-.77-.82-.22-.26-.47-.52-.74-.79-.17-.16-.34-.33-.53-.49-.19-.16-.38-.33-.58-.49-.2-.16-.41-.35-.63-.57ZM15.04,72.44l1.74,1.71c.08.08.14.12.17.11.03-.01.07-.06.12-.16.09-.16.21-.38.34-.67.13-.29.27-.61.41-.94.14-.34.28-.66.42-.96s.26-.55.35-.75c.06-.12.08-.2.05-.23-.03-.03-.11-.01-.24.04-.46.2-1.01.44-1.64.71-.62.27-1.21.53-1.74.78-.08.04-.12.09-.12.14,0,.05.05.12.14.22Z"/><path class="cls-1" d="M20.35,82.01c-.08-.04-.15-.11-.22-.2s-.08-.17-.04-.25c.06-.1.15-.15.28-.15.12,0,.23.02.33.06.38.13.71.2.99.2.28,0,.51-.15.68-.46l3.38-5.87c.15-.27.21-.45.17-.55-.04-.1-.18-.22-.44-.37l-.92-.53c-.23-.13-.52-.15-.87-.07-.35.08-.65.19-.88.3-.07.04-.16.09-.27.14-.11.05-.21.08-.33.1-.11.02-.21,0-.28-.04-.05-.03-.09-.07-.11-.12-.02-.05-.02-.11.01-.16.05-.09.13-.18.23-.26.1-.08.26-.25.49-.49.22-.24.52-.62.88-1.14.09-.13.18-.2.27-.2.08,0,.15.01.2.04.06.04.11.09.15.18.04.08.1.19.17.32.09.14.21.28.36.42.15.14.37.3.68.48l4.25,2.45c.39.23.74.38,1.04.47.3.09.55.15.77.19.12.02.23.04.34.05.1.02.18.04.23.07.06.04.1.09.11.16,0,.07,0,.13-.03.19-.21.37-.38.68-.5.93s-.22.46-.29.62c-.08.16-.16.32-.25.49-.02.04-.09.11-.2.21-.11.11-.21.13-.29.06s-.13-.15-.14-.26c-.01-.11,0-.25.02-.42.09-.39.09-.73,0-1.02-.09-.29-.29-.53-.6-.72l-1.16-.67c-.17-.1-.33-.11-.5-.03-.17.07-.29.17-.36.3l-3.38,5.87c-.17.29-.18.57-.04.83.14.26.36.51.65.77.08.06.15.14.22.24.06.1.07.19,0,.3-.04.08-.12.11-.22.1-.11,0-.2-.04-.27-.08-.22-.12-.44-.26-.68-.42-.24-.16-.48-.31-.72-.48-.24-.16-.48-.31-.72-.45-.24-.14-.49-.27-.73-.38s-.49-.24-.74-.36c-.25-.13-.49-.25-.72-.39Z"/><path class="cls-1" d="M30.07,86.93c-.08-.02-.17-.07-.25-.14-.08-.07-.11-.15-.09-.24.03-.11.1-.19.22-.22s.23-.05.34-.06c.36.01.67-.02.93-.11s.43-.29.51-.64l1.44-6.06c.09-.39.08-.7-.02-.96-.11-.25-.36-.46-.78-.64-.11-.06-.2-.13-.28-.22-.08-.09-.1-.19-.08-.29.02-.09.08-.14.19-.17.1-.03.2-.03.29-.01.24.06.47.12.68.18.21.06.42.13.63.21.21.07.41.13.61.18.5.12,1.01.24,1.54.36.53.12,1.04.23,1.53.34s.92.2,1.3.29c.38.08.66.15.85.19.06.01.12.04.19.09.07.05.1.11.08.2-.1.47-.15.89-.16,1.24,0,.35-.04.62-.08.81-.01.06-.05.12-.1.18-.05.06-.1.09-.14.08-.06-.01-.12-.06-.19-.14-.07-.08-.12-.19-.15-.33-.07-.45-.17-.83-.29-1.12-.12-.29-.39-.49-.8-.58l-1.75-.42c-.13-.03-.27-.02-.42.02-.15.05-.25.16-.3.35l-.64,2.68c-.02.1-.02.21.01.33.03.12.09.19.18.21l1.46.35c.23.05.42.02.58-.1.16-.12.32-.32.49-.6.06-.08.13-.14.2-.19s.14-.07.21-.05c.07.02.12.06.16.14.03.08.03.16,0,.26-.08.21-.15.42-.22.63-.07.21-.12.41-.17.59-.05.21-.09.41-.11.6-.02.18-.05.4-.1.64,0,.1-.04.2-.1.28-.06.08-.12.12-.2.1-.11-.03-.18-.11-.21-.24-.03-.13-.05-.24-.06-.32,0-.3-.06-.52-.17-.65-.11-.13-.24-.22-.4-.28-.19-.08-.42-.15-.68-.21-.26-.06-.5-.12-.72-.17-.17-.04-.29-.05-.37-.02s-.13.13-.17.3l-.58,2.46c-.08.33-.09.55-.02.67.06.12.23.21.52.28l1.88.45c.44.1.86.05,1.26-.15.4-.21.71-.47.94-.79.04-.05.1-.11.17-.18.07-.07.15-.09.23-.07.08.02.13.07.14.16.01.09,0,.17-.02.26-.09.3-.21.6-.36.91-.16.31-.32.61-.5.9-.04.08-.1.15-.2.19s-.2.05-.3.03c-.4-.1-.83-.2-1.28-.32-.45-.12-.91-.23-1.38-.35-.46-.12-.92-.24-1.38-.36-.46-.12-.9-.24-1.31-.33-.24-.06-.49-.11-.75-.14-.25-.04-.5-.08-.75-.12-.25-.04-.49-.09-.73-.15Z"/><path class="cls-1" d="M48.18,89.44c-.55.09-1.07.07-1.57-.06-.5-.12-.91-.34-1.25-.66-.34-.32-.55-.72-.62-1.22-.09-.55-.04-1.05.15-1.49.18-.44.46-.85.85-1.21.38-.36.81-.71,1.3-1.04l.26-.17-.41-.34c-.17-.14-.35-.28-.55-.44-.2-.16-.37-.34-.52-.56-.15-.22-.25-.48-.3-.79-.07-.44,0-.84.22-1.21.22-.38.53-.68.95-.93.42-.24.86-.4,1.34-.48.77-.12,1.41-.04,1.93.23s.82.65.91,1.13c.07.45-.02.85-.28,1.2-.26.35-.62.74-1.09,1.15l-.26.2,2.77,2.2.24-.33c.33-.45.56-.87.69-1.27.13-.39.19-.66.16-.8-.03-.19-.1-.3-.21-.33-.11-.03-.23-.06-.37-.07-.08-.02-.16-.05-.24-.1-.08-.05-.13-.1-.14-.16-.01-.07.03-.14.11-.21.09-.06.18-.11.28-.12.07-.01.24-.03.49-.04.26-.02.52-.04.8-.07.28-.03.48-.05.61-.07.27-.04.59-.14.93-.29.35-.15.64-.25.89-.28.04,0,.1,0,.16.03.06.03.1.06.1.08.01.07-.03.16-.13.25-.1.1-.2.16-.32.19-.28.09-.53.22-.75.38-.22.17-.39.33-.52.48-.07.09-.2.24-.36.46-.17.22-.35.47-.55.75-.2.28-.41.56-.62.83-.21.27-.39.51-.54.71-.15.2-.25.33-.3.38l.41.36c.45.39.84.73,1.18,1.01.34.28.71.39,1.12.33.25-.04.47-.11.68-.23.2-.11.4-.25.58-.41.04-.04.08-.07.14-.11.05-.04.11-.06.17-.07.16-.02.25.06.28.25.02.12-.07.32-.26.6-.19.28-.46.56-.78.82-.33.27-.7.43-1.1.5-.67.1-1.23.07-1.69-.1-.46-.17-.98-.51-1.56-1.01l-.44-.4-.09.13c-.29.43-.56.82-.81,1.16-.25.34-.54.62-.86.84-.32.21-.74.36-1.25.44ZM48.54,88.05c.39-.06.76-.21,1.1-.44.34-.23.66-.53.96-.88l.11-.15-.29-.27c-.35-.32-.74-.65-1.18-1-.44-.35-.88-.72-1.33-1.11l-.29-.29-.24.19c-.45.35-.75.75-.88,1.18-.14.44-.18.85-.12,1.24.05.32.18.6.39.85.21.25.47.44.79.56.32.12.64.16.97.1ZM48.84,82.43l.19-.19c.19-.21.31-.47.36-.79.05-.32.05-.62,0-.91-.06-.38-.21-.68-.46-.91-.24-.23-.54-.32-.89-.26-.29.04-.52.19-.69.43-.17.24-.24.5-.21.78.03.19.08.35.17.49.08.14.2.28.37.42.16.15.38.33.65.55l.51.39Z"/><path class="cls-1" d="M64.53,84.22c-.08.04-.17.07-.28.09-.11.01-.19-.02-.23-.09-.06-.1-.06-.21,0-.31.06-.11.14-.19.22-.26.3-.26.52-.52.66-.76.14-.24.12-.52-.06-.82l-3.45-5.83c-.16-.27-.29-.41-.39-.42-.1-.02-.28.05-.53.2l-.91.54c-.23.13-.39.38-.49.73-.1.35-.16.66-.17.92,0,.09,0,.19-.01.3,0,.11-.03.23-.07.34-.04.11-.1.18-.17.23-.05.03-.1.04-.16.03s-.1-.04-.13-.09c-.05-.09-.09-.2-.12-.33-.03-.13-.09-.35-.19-.67-.1-.31-.29-.76-.56-1.33-.07-.15-.08-.26-.04-.33.04-.07.09-.13.14-.16.06-.04.14-.05.23-.05s.21,0,.36,0c.16-.01.34-.05.54-.1.2-.06.45-.17.75-.35l4.22-2.5c.39-.23.7-.45.92-.67.22-.22.4-.41.54-.58.08-.1.15-.19.21-.27.06-.08.12-.13.17-.16.06-.04.13-.04.2-.01.07.03.12.07.15.12.22.37.4.66.57.89.16.23.29.41.39.56.1.14.2.3.3.46.02.04.05.13.09.28.04.15,0,.24-.09.28-.1.04-.2.04-.3,0-.1-.04-.22-.12-.35-.23-.29-.27-.59-.44-.89-.51-.3-.07-.6-.01-.92.17l-1.16.68c-.16.1-.26.24-.28.42-.02.18,0,.34.08.46l3.45,5.83c.17.29.4.44.7.44.29,0,.62-.06.99-.19.1-.04.2-.06.32-.07.11,0,.2.04.26.14.05.08.04.16-.02.24s-.13.15-.2.2c-.22.13-.45.26-.7.39-.25.13-.51.26-.77.39-.26.13-.51.26-.75.4-.24.14-.47.29-.69.45-.22.16-.45.31-.68.47-.23.15-.46.3-.69.43Z"/><path class="cls-1" d="M73.56,78c-.06.06-.15.11-.25.15-.1.04-.19.03-.25-.03-.08-.08-.11-.18-.08-.3.03-.11.08-.22.16-.31.21-.29.35-.57.41-.85.07-.27-.03-.54-.29-.8l-4.41-4.42c-.29-.29-.57-.45-.83-.48-.26-.03-.58.08-.94.32-.12.07-.23.12-.34.14-.11.02-.21-.01-.29-.09-.06-.06-.07-.15-.03-.25.04-.1.09-.18.14-.23.19-.19.38-.37.57-.54.19-.17.39-.34.58-.51.2-.17.38-.34.56-.51.18-.18.35-.37.52-.57.17-.2.35-.4.53-.61.18-.2.36-.39.54-.57.07-.07.16-.12.26-.15.1-.03.18,0,.24.06.07.07.1.17.08.28-.02.11-.06.22-.12.33-.18.26-.28.49-.31.7-.03.21-.01.39.06.56.07.17.21.35.4.54l4.38,4.39c.25.25.51.34.79.27.27-.07.57-.19.88-.38.08-.06.18-.11.3-.15.12-.04.22-.01.3.07.06.06.08.14.04.24-.04.1-.09.18-.15.24-.18.18-.37.36-.58.54-.21.19-.42.37-.63.55-.21.18-.42.37-.62.57-.19.19-.37.38-.54.59s-.35.41-.53.61c-.18.2-.36.39-.54.58Z"/><path class="cls-1" d="M80.34,70.35c-.05.07-.11.14-.21.21-.09.06-.17.07-.25.03-.1-.06-.14-.15-.14-.28s.03-.23.07-.33c.15-.38.22-.7.23-.98s-.14-.51-.44-.7l-5.76-3.56c-.26-.16-.44-.23-.54-.19-.1.03-.22.18-.38.42l-.55.9c-.14.22-.17.51-.1.87.07.36.17.65.27.89.04.08.08.17.13.27s.08.22.09.33c.02.11,0,.21-.04.28-.03.05-.07.08-.13.1-.05.02-.11.01-.16-.02-.09-.05-.17-.13-.25-.24-.08-.1-.24-.27-.48-.5-.24-.23-.61-.54-1.11-.92-.13-.1-.19-.19-.19-.27,0-.09.02-.15.05-.2.04-.06.1-.11.18-.15.08-.04.19-.09.32-.16.14-.09.28-.2.43-.34.15-.14.31-.36.5-.66l2.58-4.17c.24-.39.41-.73.5-1.02.09-.29.17-.55.21-.76.02-.12.05-.23.06-.34.02-.1.04-.18.08-.23.04-.06.09-.1.17-.1.07,0,.13,0,.18.04.36.22.67.4.92.53.25.13.45.23.61.31.16.08.32.17.48.27.04.02.11.09.21.21.1.11.12.21.05.29-.07.08-.15.12-.26.13-.11,0-.25,0-.42-.04-.39-.1-.73-.11-1.02-.04s-.54.27-.73.58l-.71,1.14c-.1.16-.12.33-.05.5.07.17.16.29.29.37l5.76,3.56c.29.18.56.2.82.07.26-.13.52-.34.79-.63.07-.08.15-.15.25-.21.1-.06.2-.06.3,0,.08.05.11.12.09.23s-.04.19-.09.27c-.13.21-.28.44-.44.67-.16.23-.33.47-.5.7-.17.23-.33.47-.47.7-.15.24-.28.48-.41.72s-.25.49-.39.73c-.13.24-.27.48-.41.7Z"/><path class="cls-1" d="M85.76,60.27c-.02.07-.06.14-.14.21-.07.07-.14.1-.21.08-.1-.03-.17-.09-.2-.19-.03-.1-.05-.22-.04-.35.02-.37,0-.69-.08-.95-.08-.26-.29-.44-.65-.53l-6.03-1.56c-.38-.1-.7-.1-.96,0-.25.1-.48.37-.69.8-.06.11-.13.2-.23.27-.09.07-.2.1-.31.07-.08-.02-.14-.09-.15-.2-.02-.11-.02-.2,0-.27.07-.26.14-.51.22-.75.08-.24.16-.49.25-.74.09-.25.16-.5.23-.74.06-.23.11-.47.15-.72.04-.25.09-.51.15-.78s.11-.52.18-.76c.02-.09.07-.17.14-.25.07-.08.15-.11.24-.09.1.03.17.1.21.21.04.12.06.23.06.36-.03.42.04.73.23.95.19.22.49.38.9.48l5.9,1.53c.34.09.58.09.72.02.14-.08.24-.24.31-.48l.47-1.81c.08-.31.1-.59.06-.83-.04-.24-.16-.48-.36-.72-.2-.24-.47-.51-.81-.81-.05-.04-.1-.11-.17-.19-.06-.08-.08-.18-.05-.28.03-.1.08-.15.17-.16.08,0,.17,0,.26.02.1.03.24.09.43.19.19.1.38.21.59.34.21.12.41.24.59.35.18.11.32.19.41.24.05.03.1.09.15.19.04.1.06.18.04.25-.1.4-.22.82-.34,1.27-.12.45-.25.92-.39,1.4-.13.48-.27.95-.4,1.41-.13.46-.25.9-.37,1.33-.08.36-.15.7-.2,1.04-.06.33-.14.72-.25,1.16Z"/><path class="cls-1" d="M88.11,50.43c0,.09-.03.18-.08.27-.05.09-.12.14-.21.14-.12,0-.2-.06-.26-.17-.06-.11-.1-.22-.12-.32-.07-.35-.17-.65-.3-.89-.13-.24-.38-.36-.73-.37l-6.23-.14c-.4,0-.71.07-.93.22-.22.16-.38.45-.46.89-.03.12-.08.22-.16.32-.08.09-.16.14-.27.14-.09,0-.16-.05-.21-.15-.05-.1-.07-.19-.07-.28,0-.25.02-.48.04-.7.02-.22.04-.44.07-.66.03-.22.04-.43.05-.64.01-.51.02-1.04.02-1.58,0-.54,0-1.06.01-1.56,0-.5,0-.94,0-1.33,0-.39,0-.68,0-.87,0-.06.02-.13.05-.21.03-.08.09-.12.18-.12.48,0,.9-.04,1.25-.11.35-.06.62-.1.81-.09.06,0,.12.02.2.06.07.04.11.08.11.12,0,.06-.03.13-.09.22-.06.09-.16.16-.29.21-.43.17-.77.34-1.04.52-.26.18-.4.48-.4.9l-.04,1.8c0,.13.04.27.11.41.08.14.21.21.4.22l2.75.06c.1,0,.21-.02.32-.08.11-.06.17-.13.17-.22l.03-1.5c0-.23-.07-.42-.22-.54-.15-.13-.38-.25-.69-.36-.09-.05-.16-.1-.23-.16-.06-.06-.1-.13-.09-.2,0-.07.03-.13.1-.18.07-.05.15-.07.25-.05.22.03.44.06.66.08.22.02.43.03.62.04.22,0,.42,0,.61-.02.18-.02.4-.03.65-.04.1-.01.2,0,.3.04.09.04.14.1.14.17,0,.12-.07.2-.19.26-.13.06-.23.1-.3.13-.29.07-.5.17-.6.31-.11.14-.17.29-.19.45-.03.21-.05.44-.06.71,0,.27-.01.52-.02.74,0,.18.02.3.06.36.04.07.15.1.33.11l2.53.06c.34,0,.56-.03.66-.12.1-.09.16-.27.17-.57l.04-1.94c.01-.45-.13-.85-.41-1.2-.29-.34-.61-.59-.97-.75-.06-.03-.12-.07-.21-.13-.08-.05-.12-.12-.12-.21,0-.09.04-.15.12-.17.08-.03.17-.04.25-.04.31.02.63.08.96.16.34.09.66.19.98.3.09.02.16.07.23.16.06.09.1.19.09.29,0,.41-.02.85-.04,1.32-.02.47-.04.94-.05,1.42-.02.48-.04.95-.06,1.43-.03.48-.04.93-.05,1.35,0,.25,0,.5.01.76.02.26.03.51.04.76,0,.25,0,.5,0,.75Z"/><path class="cls-1" d="M37.54,64.71c-.13,0-.27-.14-.4-.42-.13-.28-.27-.59-.4-.92l-11.38-26.98c-.37-.83-.81-1.52-1.34-2.06-.53-.55-1.24-.94-2.14-1.17-.46-.17-.84-.32-1.14-.47-.3-.15-.45-.36-.45-.62,0-.23.14-.39.42-.47.28-.08.6-.12.97-.12.83,0,1.68.02,2.56.07.88.05,1.75.07,2.61.07.96,0,1.89-.02,2.78-.07.89-.05,1.69-.07,2.38-.07.43,0,.78.05,1.04.15.26.1.4.25.4.45,0,.27-.13.46-.4.6-.27.13-.66.28-1.19.45-.46.1-.75.3-.87.6-.12.3-.17.63-.17.99,0,.43.05.84.15,1.24.1.4.17.61.2.65.73,1.79,1.41,3.47,2.04,5.04.63,1.57,1.26,3.1,1.89,4.57.63,1.47,1.28,2.98,1.94,4.52.66,1.54,1.37,3.19,2.14,4.94.17.36.31.55.42.55s.24-.17.37-.5l3.48-8c.1-.23.17-.44.22-.62.05-.18.08-.34.08-.47,0-.17-.03-.35-.1-.55-.07-.2-.15-.43-.25-.7l-3.63-8.45c-.4-.96-1.02-1.77-1.86-2.43-.84-.66-1.71-1.11-2.61-1.34-.46-.17-.83-.32-1.09-.47-.27-.15-.4-.36-.4-.62,0-.23.12-.39.37-.47.25-.08.55-.12.92-.12.6,0,1.2.02,1.81.05.61.03,1.23.06,1.86.07.63.02,1.24.02,1.84.02.83,0,1.63-.02,2.41-.07s1.5-.07,2.16-.07c.46,0,.84.05,1.12.15.28.1.42.25.42.45,0,.27-.14.47-.42.62-.28.15-.58.31-.89.47-.32.17-.54.4-.67.7-.2.1-.31.23-.32.4-.02.17,0,.33.07.5.1.2.24.56.42,1.09.18.53.4,1.1.65,1.71.25.61.48,1.2.7,1.76.21.56.39.98.52,1.24.2.43.36.63.47.6.12-.03.26-.23.42-.6.23-.56.5-1.22.79-1.96.3-.75.56-1.47.8-2.19.23-.71.4-1.2.5-1.47.07-.17.1-.36.1-.6,0-.43-.17-.75-.5-.94s-.67-.39-1.02-.57c-.35-.18-.52-.42-.52-.72,0-.2.11-.35.32-.45.21-.1.55-.15,1.02-.15.76,0,1.28.02,1.57.05.28.03.65.05,1.12.05.53,0,1.01-.03,1.44-.1.43-.07,1.01-.1,1.74-.1.4,0,.74.05,1.02.15.28.1.42.27.42.5,0,.27-.13.46-.4.6-.27.13-.65.27-1.14.4-1.03.23-1.75.56-2.16.97-.42.41-.84.97-1.27,1.66-.2.43-.47,1.01-.82,1.74-.35.73-.7,1.51-1.07,2.34-.37.83-.7,1.61-.99,2.34-.13.3-.22.65-.25,1.07-.03.42,0,.75.1,1.02l4.62,11.63c.1.23.2.31.3.22.1-.08.2-.22.3-.42.96-2.42,2-5.27,3.11-8.55,1.11-3.28,2.21-6.61,3.3-9.99.17-.5.27-.9.32-1.22.05-.31.08-.59.08-.82-.03-.46-.16-.87-.37-1.22-.22-.35-.59-.57-1.12-.67-.33-.1-.68-.23-1.04-.4-.37-.17-.55-.38-.55-.65,0-.2.14-.35.42-.45.28-.1.62-.15,1.02-.15.79,0,1.44.02,1.94.05.5.03,1.03.05,1.59.05.73-.03,1.44-.07,2.14-.12.7-.05,1.41-.07,2.14-.07.43,0,.79.04,1.09.12.3.08.45.26.45.52,0,.23-.15.42-.45.57s-.68.29-1.14.42c-.76.17-1.41.47-1.94.92-.53.45-.94.95-1.24,1.52-.3.56-.56,1.09-.8,1.59l-9.74,26.38c-.07.2-.18.43-.35.7-.17.26-.35.4-.55.4-.17,0-.34-.09-.52-.27-.18-.18-.32-.41-.42-.67-.7-1.59-1.34-3.09-1.94-4.5-.6-1.41-1.2-2.89-1.81-4.45-.61-1.56-1.35-3.31-2.21-5.27-.1-.23-.19-.33-.27-.3-.08.03-.19.2-.32.5-.73,1.69-1.41,3.24-2.04,4.65-.63,1.41-1.25,2.84-1.86,4.3-.61,1.46-1.27,3.05-1.96,4.77-.13.33-.29.65-.47.94-.18.3-.39.45-.62.45Z"/></g></svg>