<?xml version="1.0" encoding="UTF-8"?><svg id="Layer_2" xmlns="http://www.w3.org/2000/svg" viewBox="0 0 275.55 32.64"><defs><style>.cls-1{fill:#231f20;}</style></defs><g id="Layer_1-2"><path class="cls-1" d="M15.55,32.59c-.06,0-.16-.14-.28-.42-.12-.28-.25-.57-.37-.88L4.88,6.13c-.37-.8-.82-1.46-1.35-1.97s-1.19-.87-2-1.09c-.5-.15-.88-.31-1.14-.46-.26-.15-.39-.34-.39-.56,0-.19.12-.32.37-.39.25-.08.57-.12.98-.12.71,0,1.38.02,2.02.07.63.05,1.34.07,2.11.07.87,0,1.69-.02,2.46-.05.77-.03,1.39-.05,1.86-.05.4,0,.73.04.98.12.25.08.37.21.37.39,0,.22-.12.39-.37.51-.25.12-.63.26-1.16.42-.37.09-.62.29-.74.58-.12.29-.19.61-.19.95,0,.5.12,1.16.37,2,.71,1.8,1.36,3.44,1.95,4.92.59,1.49,1.17,2.92,1.74,4.29.57,1.38,1.18,2.79,1.81,4.23.63,1.44,1.34,3.04,2.11,4.81.15.34.29.5.39.46.11-.03.21-.17.3-.42l3.62-8.96c.09-.25.16-.46.21-.63.05-.17.07-.32.07-.44,0-.19-.03-.38-.09-.58-.06-.2-.16-.46-.28-.77l-2.65-6.59c-.4-.99-1.04-1.82-1.9-2.48-.87-.67-1.7-1.11-2.51-1.32-.5-.15-.88-.31-1.14-.46-.26-.15-.39-.34-.39-.56,0-.19.12-.32.37-.39.25-.08.57-.12.98-.12.49,0,.97.02,1.42.05.45.03.91.05,1.39.07.48.02,1,.02,1.55.02.71,0,1.37-.02,1.97-.05.6-.03,1.14-.05,1.6-.05.4,0,.73.04.98.12.25.08.37.21.37.39,0,.25-.16.45-.46.6-.31.16-.63.32-.95.51-.33.19-.49.46-.49.84,0,.06,0,.12.02.19.01.06.04.12.07.19.06.12.18.43.35.91.17.48.37,1.01.6,1.6.23.59.46,1.14.67,1.65.22.51.37.88.46,1.09.15.37.29.57.39.58.11.02.26-.18.44-.58.25-.56.5-1.19.77-1.9.26-.71.5-1.38.7-2.02.2-.63.33-1.08.39-1.32.03-.09.05-.2.05-.33,0-.37-.14-.65-.42-.84-.28-.19-.56-.36-.86-.53-.29-.17-.44-.38-.44-.63,0-.19.12-.32.37-.39.25-.08.57-.12.97-.12.68,0,1.14.02,1.39.05.25.03.59.05,1.02.05.53,0,.98-.02,1.35-.07s.84-.07,1.39-.07c.4,0,.73.04.98.12.25.08.37.21.37.39,0,.22-.12.4-.37.53-.25.14-.63.27-1.16.39-.99.22-1.66.48-2.02.79-.36.31-.74.79-1.14,1.44-.16.28-.38.74-.67,1.39-.29.65-.6,1.36-.93,2.14-.33.77-.61,1.5-.86,2.18-.09.22-.18.53-.25.93-.08.4-.09.68-.02.84l4.78,12.3c.06.16.14.2.23.14s.19-.2.28-.42c.77-2.04,1.65-4.66,2.62-7.85s1.99-6.56,3.04-10.12c.09-.28.16-.56.21-.86.05-.29.07-.56.07-.81,0-.46-.1-.88-.3-1.25-.2-.37-.56-.62-1.09-.74-.31-.09-.64-.22-1-.37-.36-.15-.53-.34-.53-.56,0-.19.12-.32.37-.4.25-.08.57-.12.97-.12.62,0,1.18,0,1.69.02.51.02,1.06.02,1.65.02.77,0,1.52-.02,2.23-.07s1.36-.07,1.95-.07c.4,0,.73.04.97.12.25.08.37.21.37.39,0,.22-.12.4-.37.53s-.63.27-1.16.39c-.74.16-1.37.47-1.88.95-.51.48-.91,1.01-1.21,1.58-.29.57-.53,1.09-.72,1.56l-8.22,24.28c-.03.12-.12.33-.28.63-.16.29-.31.44-.46.44-.12,0-.26-.09-.42-.28-.16-.19-.28-.39-.37-.6-.8-1.86-1.5-3.52-2.09-4.99-.59-1.47-1.15-2.95-1.69-4.43-.54-1.49-1.18-3.13-1.93-4.92-.09-.22-.17-.3-.23-.26-.06.05-.16.23-.28.53-.74,1.76-1.39,3.33-1.93,4.69-.54,1.36-1.08,2.75-1.6,4.16-.53,1.41-1.11,3.03-1.76,4.85-.12.31-.28.63-.46.95s-.37.49-.56.49Z"/><path class="cls-1" d="M57.25,32.5c-2.04,0-3.99-.36-5.85-1.09-1.86-.73-3.5-1.76-4.92-3.11-1.42-1.35-2.55-2.96-3.39-4.83-.84-1.87-1.25-3.95-1.25-6.24,0-2.1.34-4.12,1.02-6.06.68-1.93,1.69-3.66,3.02-5.18,1.33-1.52,2.99-2.72,4.97-3.62,1.98-.9,4.25-1.35,6.82-1.35,2.04,0,3.99.36,5.85,1.09,1.86.73,3.5,1.76,4.92,3.11,1.42,1.35,2.55,2.96,3.39,4.83.84,1.87,1.25,3.95,1.25,6.24,0,2.07-.34,4.09-1.02,6.04-.68,1.95-1.69,3.68-3.02,5.2-1.33,1.52-2.99,2.72-4.97,3.62s-4.26,1.35-6.82,1.35ZM57.94,30.64c2.38,0,4.36-.5,5.94-1.51,1.58-1.01,2.76-2.41,3.55-4.23.79-1.81,1.18-3.92,1.18-6.34,0-2.14-.25-4.15-.74-6.04-.5-1.89-1.23-3.55-2.21-4.99-.97-1.44-2.19-2.56-3.64-3.37-1.46-.8-3.16-1.21-5.11-1.21-2.32,0-4.27.5-5.85,1.49-1.58.99-2.77,2.38-3.57,4.16-.81,1.78-1.21,3.88-1.21,6.29,0,2.17.24,4.19.72,6.08.48,1.89,1.21,3.56,2.18,5.01.97,1.46,2.19,2.59,3.64,3.41,1.45.82,3.16,1.23,5.11,1.23Z"/><path class="cls-1" d="M92.67,32.5c-2.04,0-3.99-.36-5.85-1.09-1.86-.73-3.5-1.76-4.92-3.11-1.42-1.35-2.55-2.96-3.39-4.83-.84-1.87-1.25-3.95-1.25-6.24,0-2.1.34-4.12,1.02-6.06.68-1.93,1.69-3.66,3.02-5.18,1.33-1.52,2.99-2.72,4.97-3.62,1.98-.9,4.25-1.35,6.82-1.35,2.04,0,3.99.36,5.85,1.09,1.86.73,3.5,1.76,4.92,3.11,1.42,1.35,2.55,2.96,3.39,4.83.84,1.87,1.25,3.95,1.25,6.24,0,2.07-.34,4.09-1.02,6.04-.68,1.95-1.69,3.68-3.02,5.2-1.33,1.52-2.99,2.72-4.97,3.62s-4.26,1.35-6.82,1.35ZM93.37,30.64c2.38,0,4.36-.5,5.94-1.51,1.58-1.01,2.76-2.41,3.55-4.23.79-1.81,1.18-3.92,1.18-6.34,0-2.14-.25-4.15-.74-6.04-.5-1.89-1.23-3.55-2.21-4.99-.97-1.44-2.19-2.56-3.64-3.37-1.46-.8-3.16-1.21-5.11-1.21-2.32,0-4.27.5-5.85,1.49-1.58.99-2.77,2.38-3.57,4.16-.81,1.78-1.21,3.88-1.21,6.29,0,2.17.24,4.19.72,6.08.48,1.89,1.21,3.56,2.18,5.01.97,1.46,2.19,2.59,3.64,3.41,1.45.82,3.16,1.23,5.11,1.23Z"/><path class="cls-1" d="M126.89,32.17c-.31,0-1-.03-2.07-.09-1.07-.06-2.29-.12-3.67-.16-1.38-.05-2.69-.07-3.92-.07-.62,0-1.14.02-1.55.05-.42.03-.87.07-1.35.12-.48.05-1.14.07-1.97.07-.4,0-.73-.05-.97-.14-.25-.09-.37-.25-.37-.46,0-.25.12-.41.37-.49.25-.08.63-.16,1.16-.26,1.18-.22,1.99-.57,2.44-1.07.45-.49.67-1.3.67-2.41V6.36c0-1.11-.22-1.9-.67-2.37-.45-.46-1.26-.8-2.44-1.02-.53-.09-.91-.19-1.16-.3-.25-.11-.37-.29-.37-.53,0-.22.12-.37.37-.46.25-.09.57-.14.97-.14.8,0,1.45,0,1.93.02.48.02.95.03,1.42.05.46.02,1.07.02,1.81.02.49,0,1.12-.02,1.88-.05.76-.03,1.55-.08,2.37-.14.82-.06,1.56-.11,2.23-.14.67-.03,1.15-.05,1.46-.05,3.16,0,5.85.38,8.08,1.14,2.23.76,4.04,1.81,5.43,3.16,1.39,1.35,2.42,2.91,3.09,4.69.67,1.78,1,3.69,1,5.73,0,2.23-.42,4.32-1.25,6.27-.83,1.95-2,3.68-3.48,5.18-1.49,1.5-3.2,2.67-5.15,3.51-1.95.84-4.04,1.25-6.27,1.25ZM126.33,30.55c2.41,0,4.55-.59,6.41-1.76,1.86-1.18,3.3-2.8,4.34-4.88,1.04-2.07,1.56-4.46,1.56-7.15,0-2.23-.37-4.22-1.11-5.97-.74-1.75-1.73-3.22-2.97-4.41-1.24-1.19-2.63-2.1-4.18-2.74-1.55-.63-3.11-.95-4.69-.95-1.33,0-2.47.04-3.41.12-.94.08-1.66.32-2.16.72-.5.4-.74,1.07-.74,2v20.71c0,1.24.34,2.17,1.02,2.79.68.62,1.56,1.03,2.62,1.23,1.07.2,2.17.3,3.32.3Z"/><path class="cls-1" d="M145.34,31.92c-.23-.11-.35-.24-.35-.4,0-.28.15-.47.44-.58.29-.11.49-.18.58-.21,1.21-.25,2.14-.61,2.79-1.09.65-.48.98-1.23.98-2.25V5.85c0-.74-.08-1.29-.23-1.65-.16-.36-.43-.62-.84-.79-.4-.17-.99-.32-1.76-.44-1.02-.19-1.53-.49-1.53-.93,0-.19.12-.32.37-.39.25-.08.57-.12.97-.12.84,0,1.51.02,2.02.05s1,.05,1.46.07c.46.02,1.04.02,1.72.02.77,0,1.44,0,2-.02.56-.02,1.13-.04,1.72-.07s1.3-.05,2.14-.05c.4,0,.73.04.98.12.25.08.37.21.37.39,0,.22-.12.4-.37.56-.25.16-.63.28-1.16.37-1.15.22-2.12.47-2.92.77-.81.29-1.21.89-1.21,1.79v21.87c0,.96.22,1.67.65,2.14.43.46,1.41.7,2.92.7h5.76c.84,0,1.57-.13,2.21-.39.63-.26,1.11-.53,1.42-.81.62-.53,1.08-1,1.37-1.42.29-.42.64-1.04,1.04-1.88.06-.19.19-.46.39-.84.2-.37.41-.56.63-.56.19,0,.33.09.42.28.09.19.14.37.14.56,0,.03,0,.07-.02.12-.02.05-.02.09-.02.12-.22.81-.41,1.53-.58,2.18s-.31,1.27-.42,1.86-.19,1.21-.25,1.86c-.03.22-.09.4-.16.56s-.24.23-.49.23c-1.55,0-3.03-.02-4.46-.05-1.42-.03-2.79-.05-4.11-.07-1.32-.02-2.58-.04-3.78-.07-1.21-.03-2.4-.05-3.58-.05-.77,0-1.65.02-2.62.05-.97.03-2.19.09-3.64.19-.4,0-.72-.05-.95-.16Z"/><path class="cls-1" d="M173.04,32.08c-.4,0-.73-.05-.98-.16-.25-.11-.37-.26-.37-.44,0-.22.13-.41.39-.58.26-.17.64-.33,1.14-.49.8-.25,1.55-.62,2.23-1.11.68-.49,1.27-1.31,1.76-2.46.87-1.98,1.66-3.84,2.39-5.57.73-1.73,1.42-3.44,2.07-5.11.65-1.67,1.32-3.41,2.02-5.22s1.43-3.78,2.21-5.92c.15-.43.29-.87.42-1.3.12-.43.2-.9.23-1.39.28-.09.56-.19.83-.28.28-.09.56-.23.84-.42.28-.19.47-.46.58-.84s.21-.62.3-.74c.03-.03.07-.05.12-.05s.08.03.12.09c.06.12.12.28.16.46.05.19.1.37.16.56.74,2.35,1.52,4.75,2.32,7.2.8,2.45,1.59,4.81,2.34,7.08.76,2.28,1.45,4.32,2.09,6.13.63,1.81,1.14,3.27,1.51,4.39.43,1.24.9,2.17,1.39,2.79.49.62,1.01,1.05,1.55,1.3.54.25,1.12.43,1.74.56.53.09.91.24,1.16.44.25.2.37.41.37.63,0,.19-.12.31-.37.37-.25.06-.57.09-.98.09-.43,0-1.02-.02-1.76-.07-.74-.05-1.53-.09-2.37-.14-.84-.05-1.61-.07-2.32-.07h-1.81c-.62,0-1.19,0-1.72.02-.53.02-.98.02-1.35.02-.4,0-.73-.05-.97-.14-.25-.09-.37-.23-.37-.42,0-.22.16-.4.46-.56.31-.15.67-.26,1.07-.33,1.02-.15,1.75-.42,2.18-.79.43-.37.65-.8.65-1.3,0-.46-.1-1.14-.3-2.02-.2-.88-.44-1.83-.72-2.83-.28-1.01-.54-1.9-.79-2.67-.06-.25-.18-.39-.35-.44-.17-.05-.47-.07-.91-.07h-8.77c-.12,0-.26.05-.39.16-.14.11-.27.33-.39.67-.09.31-.25.8-.46,1.46s-.43,1.37-.65,2.11c-.22.74-.4,1.41-.56,2-.16.59-.23.96-.23,1.11,0,.68.26,1.25.79,1.69.53.45,1.16.77,1.9.95,1.02.28,1.53.59,1.53.93,0,.19-.12.32-.37.39-.25.08-.57.12-.98.12s-.99-.02-1.76-.05c-.77-.03-1.59-.05-2.46-.05-1.02,0-2.01.05-2.97.14-.96.09-1.83.14-2.6.14ZM183.9,18.76h7.2c.43,0,.65-.08.65-.23,0-.06,0-.13-.02-.21-.02-.08-.04-.16-.07-.26l-3.62-11.33c-.19-.56-.33-.84-.42-.84-.06,0-.19.26-.37.79l-4.23,11.38c-.06.19-.09.31-.09.37,0,.16.08.25.26.28.17.03.41.05.72.05Z"/><path class="cls-1" d="M235.48,32.64c-.28,0-.83-.23-1.65-.7-.82-.46-1.6-1.21-2.34-2.23-.12-.15-.5-.62-1.14-1.39-.63-.77-1.44-1.74-2.41-2.9-.98-1.16-2.04-2.42-3.18-3.78-1.15-1.36-2.29-2.72-3.44-4.09-1.15-1.36-2.21-2.62-3.2-3.78-.99-1.16-1.82-2.14-2.48-2.92-.67-.79-1.08-1.28-1.23-1.46-.22-.28-.4-.47-.56-.58-.16-.11-.29-.16-.42-.16-.16,0-.26.12-.33.35-.06.23-.09.44-.09.63-.03,1.52-.06,3.27-.09,5.25-.03,1.98-.06,4.02-.09,6.13-.03,2.11-.05,4.12-.05,6.04,0,.84.21,1.61.63,2.32.42.71,1.2,1.18,2.34,1.39.53.09.91.2,1.16.33.25.12.37.29.37.51,0,.19-.12.32-.37.4-.25.08-.57.12-.97.12-.84,0-1.46-.02-1.88-.07-.42-.05-.79-.09-1.11-.12-.33-.03-.78-.05-1.37-.05-.56,0-.99.02-1.3.05-.31.03-.67.07-1.07.12s-1.02.07-1.86.07c-.4,0-.73-.04-.98-.12-.25-.08-.37-.21-.37-.4,0-.22.12-.39.37-.51.25-.12.63-.25,1.16-.37.9-.25,1.55-.7,1.95-1.37.4-.67.65-1.48.74-2.44.12-1.18.25-2.73.37-4.67.12-1.93.23-4.1.32-6.5.09-2.4.14-4.87.14-7.41,0-1.64-.43-2.82-1.28-3.53-.85-.71-1.96-1.28-3.32-1.72-.12-.06-.39-.19-.81-.39-.42-.2-.63-.44-.63-.72s.14-.46.42-.53c.28-.08.5-.12.65-.12.9.03,1.62.05,2.18.07.56.02,1.05.04,1.49.07.43.03.91.05,1.44.07.53.02,1.21.02,2.04.02.28,0,.49.08.65.23.15.16.31.34.46.56.12.19.53.7,1.23,1.56.7.85,1.56,1.92,2.6,3.2,1.04,1.28,2.17,2.68,3.41,4.18,1.24,1.5,2.48,3,3.71,4.5,1.24,1.5,2.38,2.89,3.44,4.18,1.05,1.28,1.93,2.34,2.62,3.18s1.11,1.33,1.23,1.49c.12.12.3.31.53.56.23.25.44.37.63.37.28,0,.43-.32.46-.97,0-.43,0-1.26.02-2.48.01-1.22.03-2.71.05-4.46.02-1.75.02-3.64.02-5.69v-6.27c-.03-.62-.36-1.18-.98-1.67-.62-.49-1.19-.79-1.72-.88-.53-.09-1.01-.22-1.44-.37-.43-.15-.65-.34-.65-.56,0-.19.22-.32.65-.4.43-.08.85-.12,1.25-.12h2.65c.74,0,1.33,0,1.76-.02.43-.02.91-.04,1.42-.07s1.23-.05,2.16-.05c.4,0,.73.04.97.12.25.08.37.21.37.39,0,.43-.51.74-1.53.93-1.15.22-1.9.5-2.27.84-.37.34-.59.9-.65,1.67,0,.16,0,.76-.02,1.81-.02,1.05-.02,2.38-.02,3.99s0,3.34-.02,5.2c-.02,1.86-.02,3.71-.02,5.55v4.94c0,.74.02,1.42.07,2.02.05.6.08,1.11.12,1.53.03.42.05.74.05.95,0,.5-.1.81-.3.95-.2.14-.43.21-.67.21Z"/><path class="cls-1" d="M259.39,32.17c-.31,0-1-.03-2.07-.09-1.07-.06-2.29-.12-3.67-.16-1.38-.05-2.69-.07-3.92-.07-.62,0-1.14.02-1.55.05-.42.03-.87.07-1.35.12-.48.05-1.14.07-1.97.07-.4,0-.73-.05-.97-.14-.25-.09-.37-.25-.37-.46,0-.25.12-.41.37-.49.25-.08.63-.16,1.16-.26,1.18-.22,1.99-.57,2.44-1.07.45-.49.67-1.3.67-2.41V6.36c0-1.11-.22-1.9-.67-2.37-.45-.46-1.26-.8-2.44-1.02-.53-.09-.91-.19-1.16-.3-.25-.11-.37-.29-.37-.53,0-.22.12-.37.37-.46.25-.09.57-.14.97-.14.8,0,1.45,0,1.93.02.48.02.95.03,1.42.05.46.02,1.07.02,1.81.02.49,0,1.12-.02,1.88-.05.76-.03,1.55-.08,2.37-.14.82-.06,1.56-.11,2.23-.14.67-.03,1.15-.05,1.46-.05,3.16,0,5.85.38,8.08,1.14,2.23.76,4.04,1.81,5.43,3.16,1.39,1.35,2.42,2.91,3.09,4.69.67,1.78,1,3.69,1,5.73,0,2.23-.42,4.32-1.25,6.27-.83,1.95-2,3.68-3.48,5.18-1.49,1.5-3.2,2.67-5.15,3.51-1.95.84-4.04,1.25-6.27,1.25ZM258.83,30.55c2.41,0,4.55-.59,6.41-1.76,1.86-1.18,3.3-2.8,4.34-4.88,1.04-2.07,1.56-4.46,1.56-7.15,0-2.23-.37-4.22-1.11-5.97-.74-1.75-1.73-3.22-2.97-4.41-1.24-1.19-2.63-2.1-4.18-2.74-1.55-.63-3.11-.95-4.69-.95-1.33,0-2.47.04-3.41.12-.94.08-1.66.32-2.16.72-.5.4-.74,1.07-.74,2v20.71c0,1.24.34,2.17,1.02,2.79.68.62,1.56,1.03,2.62,1.23,1.07.2,2.17.3,3.32.3Z"/></g></svg>