<?xml version="1.0" encoding="UTF-8"?><svg id="Layer_2" xmlns="http://www.w3.org/2000/svg" viewBox="0 0 824.65 43.26"><defs><style>.cls-1{fill:#fff;}</style></defs><g id="Layer_1-2"><path class="cls-1" d="M20.38,43.2c-.08,0-.2-.18-.36-.55-.16-.36-.33-.75-.49-1.16L6.39,8.52c-.49-1.05-1.08-1.92-1.76-2.59-.69-.67-1.56-1.15-2.62-1.43-.65-.2-1.15-.41-1.49-.61-.35-.2-.52-.45-.52-.73,0-.24.16-.42.49-.52.32-.1.75-.15,1.28-.15.93,0,1.81.03,2.65.09.83.06,1.75.09,2.77.09,1.13,0,2.21-.02,3.22-.06,1.01-.04,1.83-.06,2.43-.06.53,0,.95.05,1.28.15.32.1.49.27.49.52,0,.28-.16.51-.49.67-.33.16-.83.34-1.52.55-.49.12-.81.38-.97.76-.16.39-.24.8-.24,1.25,0,.65.16,1.52.49,2.62.93,2.35,1.78,4.5,2.56,6.45.77,1.95,1.53,3.82,2.28,5.63.75,1.81,1.54,3.65,2.37,5.54.83,1.89,1.75,3.99,2.77,6.3.2.45.37.65.52.61.14-.04.27-.22.4-.55l4.75-11.74c.12-.32.21-.6.27-.82.06-.22.09-.42.09-.58,0-.24-.04-.5-.12-.76-.08-.26-.2-.6-.37-1l-3.47-8.64c-.53-1.3-1.36-2.38-2.49-3.25-1.14-.87-2.23-1.45-3.29-1.73-.65-.2-1.15-.41-1.49-.61-.35-.2-.52-.45-.52-.73,0-.24.16-.42.49-.52.32-.1.75-.15,1.28-.15.65,0,1.27.02,1.86.06.59.04,1.2.07,1.83.09.63.02,1.31.03,2.04.03.93,0,1.79-.02,2.59-.06.79-.04,1.49-.06,2.1-.06.53,0,.95.05,1.28.15.32.1.49.27.49.52,0,.33-.2.59-.61.79-.41.2-.82.43-1.25.67-.43.24-.64.61-.64,1.09,0,.08,0,.16.03.24.02.08.05.16.09.24.08.16.23.56.46,1.19.22.63.49,1.33.79,2.1.3.77.6,1.49.88,2.16.28.67.49,1.15.61,1.43.2.49.38.74.52.76.14.02.33-.23.58-.76.32-.73.66-1.56,1-2.49.34-.93.65-1.81.91-2.65.26-.83.44-1.41.52-1.73.04-.12.06-.26.06-.43,0-.49-.18-.85-.55-1.1-.36-.24-.74-.48-1.12-.7-.39-.22-.58-.5-.58-.82,0-.24.16-.42.49-.52.32-.1.75-.15,1.28-.15.89,0,1.5.02,1.83.06.32.04.77.06,1.34.06.69,0,1.28-.03,1.76-.09.49-.06,1.1-.09,1.83-.09.53,0,.95.05,1.28.15.32.1.49.27.49.52,0,.28-.16.52-.49.7-.33.18-.83.36-1.52.52-1.3.28-2.18.63-2.65,1.03-.47.41-.96,1.03-1.49,1.89-.2.36-.5.97-.88,1.83-.39.85-.79,1.79-1.22,2.8-.43,1.01-.8,1.97-1.12,2.86-.12.28-.23.69-.33,1.22-.1.53-.11.89-.03,1.1l6.27,16.12c.08.2.18.26.3.18.12-.08.24-.26.37-.55,1.01-2.68,2.16-6.1,3.44-10.28,1.28-4.18,2.61-8.6,3.99-13.26.12-.37.21-.74.27-1.13.06-.38.09-.74.09-1.06,0-.61-.13-1.16-.4-1.64-.26-.49-.74-.81-1.43-.97-.41-.12-.84-.28-1.31-.49-.47-.2-.7-.45-.7-.73,0-.24.16-.42.49-.52.32-.1.75-.15,1.28-.15.81,0,1.55.01,2.22.03.67.02,1.39.03,2.16.03,1.01,0,1.99-.03,2.92-.09.93-.06,1.78-.09,2.56-.09.53,0,.95.05,1.28.15.32.1.49.27.49.52,0,.28-.16.52-.49.7-.33.18-.83.36-1.52.52-.97.2-1.79.62-2.46,1.25-.67.63-1.2,1.32-1.58,2.07-.39.75-.7,1.43-.94,2.04l-10.77,31.82c-.04.16-.16.44-.37.82-.2.38-.41.58-.61.58-.16,0-.34-.12-.55-.36-.2-.24-.37-.51-.49-.79-1.05-2.43-1.97-4.61-2.74-6.54-.77-1.93-1.51-3.86-2.22-5.81s-1.55-4.1-2.52-6.45c-.12-.28-.22-.4-.3-.33-.08.06-.2.29-.36.7-.97,2.31-1.82,4.36-2.53,6.15-.71,1.79-1.41,3.6-2.1,5.45-.69,1.85-1.46,3.96-2.31,6.36-.16.41-.37.82-.61,1.25-.24.43-.49.64-.73.64Z"/><path class="cls-1" d="M75.02,43.08c-2.68,0-5.23-.48-7.67-1.43s-4.58-2.31-6.45-4.08c-1.87-1.76-3.35-3.87-4.44-6.33-1.1-2.45-1.64-5.18-1.64-8.18,0-2.76.45-5.4,1.34-7.94.89-2.53,2.21-4.8,3.96-6.78,1.74-1.99,3.91-3.57,6.51-4.75,2.6-1.18,5.58-1.76,8.94-1.76,2.68,0,5.23.48,7.67,1.43,2.43.95,4.58,2.31,6.45,4.08,1.87,1.76,3.35,3.87,4.44,6.33,1.1,2.45,1.64,5.18,1.64,8.18,0,2.72-.45,5.35-1.34,7.91-.89,2.56-2.21,4.83-3.96,6.81-1.74,1.99-3.92,3.57-6.51,4.75-2.6,1.18-5.58,1.76-8.94,1.76ZM75.93,40.64c3.12,0,5.72-.66,7.79-1.98,2.07-1.32,3.62-3.16,4.66-5.54,1.03-2.37,1.55-5.14,1.55-8.31,0-2.8-.33-5.44-.97-7.91-.65-2.47-1.61-4.65-2.89-6.54s-2.87-3.36-4.78-4.41c-1.91-1.05-4.14-1.58-6.69-1.58-3.04,0-5.6.65-7.67,1.95-2.07,1.3-3.63,3.11-4.68,5.45-1.06,2.33-1.58,5.08-1.58,8.24,0,2.84.31,5.5.94,7.97.63,2.47,1.58,4.67,2.86,6.57,1.28,1.91,2.87,3.4,4.78,4.47,1.91,1.08,4.14,1.61,6.69,1.61Z"/><path class="cls-1" d="M121.44,43.08c-2.68,0-5.23-.48-7.67-1.43s-4.58-2.31-6.45-4.08c-1.87-1.76-3.35-3.87-4.44-6.33-1.1-2.45-1.64-5.18-1.64-8.18,0-2.76.45-5.4,1.34-7.94.89-2.53,2.21-4.8,3.96-6.78,1.74-1.99,3.91-3.57,6.51-4.75,2.6-1.18,5.58-1.76,8.94-1.76,2.68,0,5.23.48,7.67,1.43,2.43.95,4.58,2.31,6.45,4.08,1.87,1.76,3.35,3.87,4.44,6.33,1.1,2.45,1.64,5.18,1.64,8.18,0,2.72-.45,5.35-1.34,7.91-.89,2.56-2.21,4.83-3.96,6.81-1.74,1.99-3.92,3.57-6.51,4.75-2.6,1.18-5.58,1.76-8.94,1.76ZM122.35,40.64c3.12,0,5.72-.66,7.79-1.98,2.07-1.32,3.62-3.16,4.66-5.54,1.03-2.37,1.55-5.14,1.55-8.31,0-2.8-.33-5.44-.97-7.91-.65-2.47-1.61-4.65-2.89-6.54s-2.87-3.36-4.78-4.41c-1.91-1.05-4.14-1.58-6.69-1.58-3.04,0-5.6.65-7.67,1.95-2.07,1.3-3.63,3.11-4.68,5.45-1.06,2.33-1.58,5.08-1.58,8.24,0,2.84.31,5.5.94,7.97.63,2.47,1.58,4.67,2.86,6.57,1.28,1.91,2.87,3.4,4.78,4.47,1.91,1.08,4.14,1.61,6.69,1.61Z"/><path class="cls-1" d="M167.5,42.65c-.41,0-1.31-.04-2.71-.12-1.4-.08-3-.15-4.81-.21-1.81-.06-3.52-.09-5.14-.09-.81,0-1.49.02-2.04.06-.55.04-1.14.09-1.76.15-.63.06-1.49.09-2.58.09-.53,0-.95-.06-1.28-.18-.33-.12-.49-.32-.49-.61,0-.32.16-.54.49-.64.32-.1.83-.21,1.52-.33,1.54-.28,2.61-.75,3.19-1.4.59-.65.88-1.7.88-3.16V8.82c0-1.46-.29-2.49-.88-3.1-.59-.61-1.65-1.05-3.19-1.34-.69-.12-1.2-.25-1.52-.4-.33-.14-.49-.38-.49-.7,0-.28.16-.49.49-.61.32-.12.75-.18,1.28-.18,1.05,0,1.9.01,2.52.03.63.02,1.25.04,1.86.06.61.02,1.4.03,2.37.03.65,0,1.47-.02,2.46-.06.99-.04,2.03-.1,3.1-.18,1.07-.08,2.05-.14,2.92-.18.87-.04,1.51-.06,1.92-.06,4.14,0,7.67.5,10.59,1.49,2.92.99,5.29,2.37,7.12,4.14,1.83,1.76,3.17,3.81,4.05,6.15.87,2.33,1.31,4.84,1.31,7.51,0,2.92-.55,5.66-1.64,8.21-1.09,2.56-2.62,4.82-4.56,6.78-1.95,1.97-4.2,3.5-6.75,4.59s-5.29,1.64-8.21,1.64ZM166.77,40.52c3.16,0,5.96-.77,8.4-2.31,2.43-1.54,4.33-3.67,5.69-6.39,1.36-2.72,2.04-5.84,2.04-9.37,0-2.92-.49-5.53-1.46-7.82-.97-2.29-2.27-4.22-3.89-5.78-1.62-1.56-3.45-2.76-5.48-3.59-2.03-.83-4.08-1.25-6.15-1.25-1.74,0-3.23.05-4.47.15-1.24.1-2.18.42-2.83.94-.65.53-.97,1.4-.97,2.62v27.14c0,1.62.45,2.84,1.34,3.65.89.81,2.04,1.35,3.44,1.61,1.4.26,2.85.4,4.35.4Z"/><path class="cls-1" d="M192.9,42.32c-.3-.14-.46-.31-.46-.52,0-.37.19-.62.58-.76.38-.14.64-.23.76-.27,1.58-.32,2.8-.8,3.65-1.43.85-.63,1.28-1.61,1.28-2.95V8.15c0-.97-.1-1.69-.3-2.16-.2-.47-.57-.81-1.1-1.03-.53-.22-1.3-.42-2.31-.58-1.34-.24-2.01-.65-2.01-1.22,0-.24.16-.42.49-.52.32-.1.75-.15,1.28-.15,1.09,0,1.98.02,2.65.06.67.04,1.31.07,1.92.09.61.02,1.36.03,2.25.03,1.01,0,1.89,0,2.62-.03.73-.02,1.48-.05,2.25-.09.77-.04,1.7-.06,2.8-.06.53,0,.95.05,1.28.15.32.1.49.27.49.52,0,.28-.16.53-.49.73-.33.2-.83.36-1.52.49-1.5.28-2.78.62-3.83,1-1.05.39-1.58,1.17-1.58,2.34v28.66c0,1.26.28,2.19.85,2.8.57.61,1.84.91,3.83.91h7.54c1.1,0,2.06-.17,2.89-.52.83-.34,1.45-.7,1.86-1.06.81-.69,1.41-1.31,1.79-1.86.38-.55.84-1.37,1.37-2.46.08-.24.25-.61.52-1.1s.54-.73.82-.73c.24,0,.43.12.55.37.12.24.18.49.18.73,0,.04-.01.09-.03.15-.02.06-.03.11-.03.15-.28,1.06-.54,2.01-.76,2.86-.22.85-.41,1.66-.55,2.43-.14.77-.25,1.58-.33,2.43-.04.28-.11.53-.21.73s-.31.3-.64.3c-2.03,0-3.98-.02-5.84-.06-1.87-.04-3.66-.07-5.38-.09-1.72-.02-3.38-.05-4.96-.09-1.58-.04-3.14-.06-4.69-.06-1.01,0-2.16.02-3.44.06-1.28.04-2.87.12-4.78.24-.53,0-.94-.07-1.25-.21Z"/><path class="cls-1" d="M227.97,42.53c-.53,0-.95-.07-1.28-.21-.33-.14-.49-.33-.49-.58,0-.28.17-.54.52-.76.34-.22.84-.44,1.49-.64,1.05-.32,2.03-.81,2.92-1.46.89-.65,1.66-1.72,2.31-3.22,1.14-2.6,2.18-5.03,3.13-7.3.95-2.27,1.86-4.5,2.71-6.69.85-2.19,1.73-4.47,2.65-6.84.91-2.37,1.88-4.96,2.89-7.76.2-.57.38-1.14.55-1.7.16-.57.26-1.18.3-1.83.37-.12.73-.24,1.1-.37.36-.12.73-.3,1.09-.55s.62-.61.76-1.1c.14-.49.27-.81.4-.97.04-.04.09-.06.15-.06s.11.04.15.12c.08.16.15.37.21.61.06.24.13.49.21.73.97,3.08,1.99,6.23,3.04,9.43,1.05,3.2,2.08,6.3,3.07,9.28.99,2.98,1.91,5.66,2.74,8.03.83,2.37,1.49,4.29,1.98,5.75.57,1.62,1.18,2.84,1.83,3.65.65.81,1.33,1.38,2.04,1.7.71.33,1.47.57,2.28.73.69.12,1.2.31,1.52.58.32.26.49.54.49.82,0,.24-.16.4-.49.49-.33.08-.75.12-1.28.12-.57,0-1.34-.03-2.31-.09-.97-.06-2.01-.12-3.1-.18-1.09-.06-2.11-.09-3.04-.09h-2.37c-.81,0-1.56.01-2.25.03-.69.02-1.28.03-1.76.03-.53,0-.95-.06-1.28-.18-.33-.12-.49-.3-.49-.55,0-.28.2-.53.61-.73.4-.2.87-.34,1.4-.43,1.34-.2,2.29-.55,2.86-1.03.57-.49.85-1.05.85-1.7,0-.61-.13-1.49-.4-2.65-.26-1.16-.58-2.39-.94-3.71-.36-1.32-.71-2.48-1.03-3.5-.08-.32-.23-.52-.46-.58-.22-.06-.62-.09-1.19-.09h-11.5c-.16,0-.33.07-.52.21-.18.14-.36.44-.52.88-.12.41-.33,1.04-.61,1.92-.28.87-.57,1.79-.85,2.77-.28.97-.53,1.85-.73,2.62-.2.77-.3,1.26-.3,1.46,0,.89.34,1.63,1.03,2.22.69.59,1.52,1,2.5,1.25,1.34.36,2.01.77,2.01,1.22,0,.24-.16.42-.49.52-.33.1-.75.15-1.28.15s-1.3-.02-2.31-.06c-1.01-.04-2.09-.06-3.23-.06-1.34,0-2.64.06-3.89.18-1.26.12-2.39.18-3.41.18ZM242.21,25.07h9.43c.57,0,.85-.1.85-.3,0-.08-.01-.17-.03-.27-.02-.1-.05-.21-.09-.33l-4.75-14.85c-.24-.73-.43-1.1-.55-1.1-.08,0-.24.34-.49,1.03l-5.54,14.91c-.08.24-.12.41-.12.49,0,.2.11.33.33.37.22.04.54.06.94.06Z"/><path class="cls-1" d="M308.59,43.26c-.37,0-1.09-.3-2.16-.91-1.08-.61-2.1-1.58-3.07-2.92-.16-.2-.66-.81-1.49-1.83-.83-1.01-1.89-2.28-3.16-3.8s-2.67-3.17-4.17-4.96c-1.5-1.78-3-3.57-4.5-5.35-1.5-1.78-2.9-3.44-4.2-4.96-1.3-1.52-2.38-2.8-3.25-3.83-.87-1.03-1.41-1.67-1.61-1.92-.28-.37-.53-.62-.73-.76-.2-.14-.39-.21-.55-.21-.2,0-.34.15-.43.46s-.12.58-.12.82c-.04,1.99-.08,4.28-.12,6.88-.04,2.6-.08,5.27-.12,8.03-.04,2.76-.06,5.4-.06,7.91,0,1.1.27,2.11.82,3.04.55.93,1.57,1.54,3.07,1.83.69.12,1.2.26,1.52.43.32.16.49.39.49.67,0,.24-.16.42-.49.52-.33.1-.75.15-1.28.15-1.1,0-1.92-.03-2.46-.09-.55-.06-1.03-.11-1.46-.15-.43-.04-1.02-.06-1.79-.06-.73,0-1.3.02-1.7.06-.41.04-.87.09-1.4.15-.53.06-1.34.09-2.43.09-.53,0-.95-.05-1.28-.15-.33-.1-.49-.27-.49-.52,0-.28.16-.51.49-.67.32-.16.83-.32,1.52-.49,1.18-.32,2.03-.92,2.56-1.79.53-.87.85-1.94.97-3.19.16-1.54.32-3.58.49-6.11.16-2.53.3-5.37.43-8.52.12-3.14.18-6.38.18-9.7,0-2.15-.56-3.69-1.67-4.62-1.12-.93-2.57-1.68-4.35-2.25-.16-.08-.52-.25-1.06-.52-.55-.26-.82-.58-.82-.94s.18-.6.55-.7c.37-.1.65-.15.85-.15,1.18.04,2.13.07,2.86.09.73.02,1.38.05,1.95.09.57.04,1.2.07,1.89.09.69.02,1.58.03,2.68.03.37,0,.65.1.85.3.2.2.41.45.61.73.16.24.7.92,1.61,2.04.91,1.12,2.05,2.52,3.41,4.2,1.36,1.68,2.85,3.51,4.47,5.48,1.62,1.97,3.24,3.93,4.87,5.9,1.62,1.97,3.12,3.79,4.5,5.48,1.38,1.68,2.53,3.07,3.44,4.17.91,1.1,1.45,1.74,1.61,1.95.16.16.4.41.7.73.3.33.58.49.82.49.37,0,.57-.43.61-1.28,0-.57,0-1.65.03-3.25.02-1.6.04-3.55.06-5.84.02-2.29.03-4.78.03-7.45V7.91c-.04-.81-.47-1.54-1.28-2.19-.81-.65-1.56-1.03-2.25-1.16-.69-.12-1.32-.28-1.89-.49-.57-.2-.85-.45-.85-.73,0-.24.28-.42.85-.52.57-.1,1.12-.15,1.64-.15h3.47c.97,0,1.74,0,2.31-.03.57-.02,1.19-.05,1.86-.09.67-.04,1.61-.06,2.83-.06.53,0,.95.05,1.28.15.32.1.49.27.49.52,0,.57-.67.97-2.01,1.22-1.5.28-2.5.65-2.98,1.09-.49.45-.77,1.18-.85,2.19,0,.2-.01.99-.03,2.37-.02,1.38-.03,3.12-.03,5.23s0,4.38-.03,6.81c-.02,2.43-.03,4.86-.03,7.27v6.48c0,.97.03,1.86.09,2.65.06.79.11,1.46.15,2.01.04.55.06.96.06,1.25,0,.65-.13,1.06-.4,1.25-.26.18-.56.27-.88.27Z"/><path class="cls-1" d="M338.71,42.65c-.41,0-1.31-.04-2.71-.12-1.4-.08-3-.15-4.81-.21-1.81-.06-3.52-.09-5.14-.09-.81,0-1.49.02-2.04.06-.55.04-1.14.09-1.76.15-.63.06-1.49.09-2.58.09-.53,0-.95-.06-1.28-.18-.33-.12-.49-.32-.49-.61,0-.32.16-.54.49-.64.32-.1.83-.21,1.52-.33,1.54-.28,2.61-.75,3.19-1.4.59-.65.88-1.7.88-3.16V8.82c0-1.46-.29-2.49-.88-3.1-.59-.61-1.65-1.05-3.19-1.34-.69-.12-1.2-.25-1.52-.4-.33-.14-.49-.38-.49-.7,0-.28.16-.49.49-.61.32-.12.75-.18,1.28-.18,1.05,0,1.9.01,2.52.03.63.02,1.25.04,1.86.06.61.02,1.4.03,2.37.03.65,0,1.47-.02,2.46-.06.99-.04,2.03-.1,3.1-.18,1.07-.08,2.05-.14,2.92-.18.87-.04,1.51-.06,1.92-.06,4.14,0,7.67.5,10.59,1.49,2.92.99,5.29,2.37,7.12,4.14,1.83,1.76,3.17,3.81,4.05,6.15.87,2.33,1.31,4.84,1.31,7.51,0,2.92-.55,5.66-1.64,8.21-1.09,2.56-2.62,4.82-4.56,6.78-1.95,1.97-4.2,3.5-6.75,4.59s-5.29,1.64-8.21,1.64ZM337.98,40.52c3.16,0,5.96-.77,8.4-2.31,2.43-1.54,4.33-3.67,5.69-6.39,1.36-2.72,2.04-5.84,2.04-9.37,0-2.92-.49-5.53-1.46-7.82-.97-2.29-2.27-4.22-3.89-5.78-1.62-1.56-3.45-2.76-5.48-3.59-2.03-.83-4.08-1.25-6.15-1.25-1.74,0-3.23.05-4.47.15-1.24.1-2.18.42-2.83.94-.65.53-.97,1.4-.97,2.62v27.14c0,1.62.45,2.84,1.34,3.65.89.81,2.04,1.35,3.44,1.61,1.4.26,2.85.4,4.35.4Z"/><path class="cls-1" d="M378.19,42.53c-.53,0-.95-.05-1.28-.15-.33-.1-.49-.27-.49-.52,0-.49.67-.85,2.01-1.1,1.54-.28,2.68-.75,3.41-1.4.73-.65,1.1-1.7,1.1-3.16V8.82c0-1.46-.29-2.49-.88-3.1s-1.65-1.05-3.19-1.34c-.69-.12-1.2-.28-1.52-.49-.33-.2-.49-.45-.49-.73,0-.24.16-.42.49-.52.32-.1.75-.15,1.28-.15,1.54,0,2.85.02,3.92.06,1.07.04,2.13.07,3.16.09,1.03.02,2.26.03,3.68.03,1.34,0,2.75,0,4.23-.03,1.48-.02,2.85-.03,4.11-.03,1.38-.04,2.54-.07,3.5-.09.95-.02,1.51-.03,1.67-.03.2,0,.43.04.67.12.24.08.38.22.43.43.2,1.14.41,2.26.61,3.38.2,1.12.3,2.08.3,2.89,0,.36-.09.61-.27.73-.18.12-.38.18-.58.18s-.35-.05-.43-.15c-.08-.1-.16-.25-.24-.46-.2-.69-.41-1.35-.61-1.98-.2-.63-.45-1.08-.73-1.37-.57-.65-1.2-1.08-1.89-1.31-.69-.22-1.42-.33-2.19-.33h-7.97c-.33,0-.77.18-1.34.55-.57.37-.85.83-.85,1.4v12.9c0,.36.11.68.33.94.22.26.48.4.76.4h6.02c1.18,0,1.99-.21,2.43-.64.45-.43.81-1.21,1.1-2.34.24-.89.61-1.34,1.09-1.34.16,0,.33.08.52.24.18.16.27.41.27.73,0,.16-.01.53-.03,1.1-.02.57-.05,1.16-.09,1.76-.04.61-.06,1.08-.06,1.4,0,.41,0,.94.03,1.61s.04,1.31.06,1.92c.02.61.03.99.03,1.16,0,.28-.03.53-.09.73-.06.2-.21.3-.46.3-.61,0-1.08-.65-1.4-1.95-.24-.93-.57-1.62-.97-2.07-.41-.45-1.01-.67-1.83-.67h-5.66c-.69,0-1.21.09-1.55.27s-.52.62-.52,1.31v11.68c0,1.54.32,2.61.97,3.19.65.59,1.66.88,3.04.88h4.5c1.3,0,2.38-.07,3.25-.21.87-.14,1.63-.42,2.28-.82.65-.45,1.23-1.03,1.73-1.76.51-.73,1.08-1.7,1.73-2.92.12-.24.26-.45.43-.61.16-.16.34-.22.55-.18.2.04.37.13.49.27.12.14.18.33.18.58,0,.36-.1,1-.3,1.92-.2.91-.46,1.86-.76,2.83-.3.97-.58,1.74-.82,2.31-.12.28-.23.53-.33.73-.1.2-.27.3-.52.3-1.95,0-3.75-.02-5.41-.06-1.66-.04-3.25-.08-4.75-.12-1.5-.04-2.97-.08-4.41-.12-1.44-.04-2.93-.06-4.47-.06-.89,0-1.66.03-2.31.09-.65.06-1.32.12-2.01.18-.69.06-1.58.09-2.68.09Z"/><path class="cls-1" d="M420.9,43.2c-1.7,0-3.28-.25-4.72-.76-1.44-.51-2.73-1.23-3.86-2.16-.16-.16-.31-.34-.46-.55-.14-.2-.25-.43-.33-.67-.2-.81-.33-1.87-.4-3.16-.06-1.3-.13-2.37-.21-3.22,0-.28.12-.5.37-.64.24-.14.53-.21.85-.21.2,0,.41.05.61.15.2.1.32.27.37.52.81,3.12,2.02,5.35,3.62,6.69,1.6,1.34,3.28,2.01,5.02,2.01,1.42,0,2.68-.3,3.77-.91,1.09-.61,1.96-1.47,2.59-2.59.63-1.12.94-2.42.94-3.92,0-1.66-.27-3.01-.82-4.05-.55-1.03-1.33-1.94-2.34-2.71-1.01-.77-2.25-1.6-3.71-2.49-1.58-1.01-3.14-2.04-4.68-3.07-1.54-1.03-2.82-2.23-3.83-3.59-1.01-1.36-1.52-3.01-1.52-4.96,0-2.07.47-3.93,1.4-5.6.93-1.66,2.34-2.99,4.23-3.99,1.89-.99,4.25-1.49,7.09-1.49,1.46,0,2.73.15,3.8.46,1.07.3,1.94.6,2.59.88.32.12.6.33.82.61.22.28.38.59.46.91.24.85.51,1.83.79,2.92s.43,2.13.43,3.1c0,.45-.3.67-.91.67-.37,0-.72-.08-1.06-.24-.35-.16-.56-.37-.64-.61-.85-2.15-1.85-3.79-2.98-4.93-1.14-1.14-2.58-1.7-4.32-1.7-1.22,0-2.35.22-3.41.67-1.05.45-1.92,1.18-2.59,2.19-.67,1.01-1,2.37-1,4.08,0,1.22.4,2.32,1.19,3.32.79.99,1.83,1.94,3.13,2.83,1.3.89,2.7,1.81,4.2,2.74,1.42.85,2.81,1.79,4.17,2.8,1.36,1.01,2.47,2.22,3.35,3.62s1.31,3.11,1.31,5.14c0,2.39-.55,4.49-1.64,6.3-1.1,1.81-2.64,3.19-4.62,4.17-1.99.97-4.32,1.46-7,1.46Z"/><path class="cls-1" d="M449.8,42.53c-.53,0-.95-.05-1.28-.15-.33-.1-.49-.27-.49-.52,0-.28.16-.51.49-.67.32-.16.83-.3,1.52-.43,1.54-.28,2.72-.78,3.53-1.49.81-.71,1.22-1.79,1.22-3.26V12.41c0-1.87-.04-3.29-.12-4.29-.08-.99-.21-1.69-.4-2.1-.18-.41-.44-.63-.76-.67-.57-.12-1.17-.19-1.79-.21-.63-.02-1.47-.03-2.52-.03h-2.86c-.97,0-1.94.19-2.89.58-.95.39-1.65.98-2.1,1.79-.12.2-.33.5-.61.88-.28.39-.59.72-.91,1-.33.28-.65.43-.97.43-.16,0-.27-.08-.33-.24-.06-.16-.09-.34-.09-.55,0-.41.1-.81.3-1.22.57-1.18.98-2.22,1.25-3.13.26-.91.48-2,.64-3.25.08-.69.23-1.1.46-1.22s.42-.18.58-.18.42.24.76.73c.34.49.6.89.76,1.22.24.41.8.71,1.67.91.87.2,1.73.3,2.59.3h21.42c1.42,0,2.58-.08,3.47-.24.89-.16,1.66-.39,2.31-.67.49-.24.88-.51,1.19-.79.3-.28.7-.43,1.19-.43.12,0,.22.15.3.46.08.3.12.62.12.94,0,.2-.03.49-.09.85-.06.36-.11.65-.15.85-.12.73-.23,1.26-.33,1.58-.1.33-.17.61-.21.85-.04.24-.06.63-.06,1.16v.73c0,.37-.08.78-.24,1.25-.16.47-.41.7-.73.7-.28,0-.51-.22-.67-.67-.16-.45-.33-1.05-.49-1.83-.16-.85-.65-1.53-1.46-2.04-.81-.51-2.19-.76-4.14-.76h-6.14c-.89,0-1.56.12-2.01.36-.45.24-.73.85-.85,1.83-.12.97-.18,2.58-.18,4.81v23.91c0,1.46.43,2.55,1.28,3.26.85.71,2.03,1.21,3.53,1.49.69.12,1.2.26,1.52.43.32.16.49.39.49.67,0,.24-.16.42-.49.52-.33.1-.75.15-1.28.15-1.1,0-2-.03-2.71-.09-.71-.06-1.39-.11-2.04-.15-.65-.04-1.44-.06-2.37-.06-1.01,0-1.9.02-2.65.06-.75.04-1.52.09-2.31.15-.79.06-1.73.09-2.83.09Z"/><path class="cls-1" d="M474.02,42.53c-.53,0-.95-.07-1.28-.21-.33-.14-.49-.33-.49-.58,0-.28.17-.54.52-.76.34-.22.84-.44,1.49-.64,1.05-.32,2.03-.81,2.92-1.46.89-.65,1.66-1.72,2.31-3.22,1.14-2.6,2.18-5.03,3.13-7.3.95-2.27,1.86-4.5,2.71-6.69.85-2.19,1.73-4.47,2.65-6.84.91-2.37,1.88-4.96,2.89-7.76.2-.57.38-1.14.55-1.7.16-.57.26-1.18.3-1.83.37-.12.73-.24,1.1-.37.36-.12.73-.3,1.09-.55s.62-.61.76-1.1c.14-.49.27-.81.4-.97.04-.04.09-.06.15-.06s.11.04.15.12c.08.16.15.37.21.61.06.24.13.49.21.73.97,3.08,1.99,6.23,3.04,9.43,1.05,3.2,2.08,6.3,3.07,9.28.99,2.98,1.91,5.66,2.74,8.03.83,2.37,1.49,4.29,1.98,5.75.57,1.62,1.18,2.84,1.83,3.65.65.81,1.33,1.38,2.04,1.7.71.33,1.47.57,2.28.73.69.12,1.2.31,1.52.58.32.26.49.54.49.82,0,.24-.16.4-.49.49-.33.08-.75.12-1.28.12-.57,0-1.34-.03-2.31-.09-.97-.06-2.01-.12-3.1-.18-1.09-.06-2.11-.09-3.04-.09h-2.37c-.81,0-1.56.01-2.25.03-.69.02-1.28.03-1.76.03-.53,0-.95-.06-1.28-.18-.33-.12-.49-.3-.49-.55,0-.28.2-.53.61-.73.4-.2.87-.34,1.4-.43,1.34-.2,2.29-.55,2.86-1.03.57-.49.85-1.05.85-1.7,0-.61-.13-1.49-.4-2.65-.26-1.16-.58-2.39-.94-3.71-.36-1.32-.71-2.48-1.03-3.5-.08-.32-.23-.52-.46-.58-.22-.06-.62-.09-1.19-.09h-11.5c-.16,0-.33.07-.52.21-.18.14-.36.44-.52.88-.12.41-.33,1.04-.61,1.92-.28.87-.57,1.79-.85,2.77-.28.97-.53,1.85-.73,2.62-.2.77-.3,1.26-.3,1.46,0,.89.34,1.63,1.03,2.22.69.59,1.52,1,2.5,1.25,1.34.36,2.01.77,2.01,1.22,0,.24-.16.42-.49.52-.33.1-.75.15-1.28.15s-1.3-.02-2.31-.06c-1.01-.04-2.09-.06-3.23-.06-1.34,0-2.64.06-3.89.18-1.26.12-2.39.18-3.41.18ZM488.26,25.07h9.43c.57,0,.85-.1.85-.3,0-.08-.01-.17-.03-.27-.02-.1-.05-.21-.09-.33l-4.75-14.85c-.24-.73-.43-1.1-.55-1.1-.08,0-.24.34-.49,1.03l-5.54,14.91c-.08.24-.12.41-.12.49,0,.2.11.33.33.37.22.04.54.06.94.06Z"/><path class="cls-1" d="M521.72,42.53c-.53,0-.95-.05-1.28-.15-.33-.1-.49-.27-.49-.52,0-.28.16-.51.49-.67.32-.16.83-.3,1.52-.43,1.54-.28,2.72-.78,3.53-1.49.81-.71,1.22-1.79,1.22-3.26V12.41c0-1.87-.04-3.29-.12-4.29-.08-.99-.21-1.69-.4-2.1-.18-.41-.44-.63-.76-.67-.57-.12-1.17-.19-1.79-.21-.63-.02-1.47-.03-2.52-.03h-2.86c-.97,0-1.94.19-2.89.58-.95.39-1.65.98-2.1,1.79-.12.2-.33.5-.61.88-.28.39-.59.72-.91,1-.33.28-.65.43-.97.43-.16,0-.27-.08-.33-.24-.06-.16-.09-.34-.09-.55,0-.41.1-.81.3-1.22.57-1.18.98-2.22,1.25-3.13.26-.91.48-2,.64-3.25.08-.69.23-1.1.46-1.22s.42-.18.58-.18.42.24.76.73c.34.49.6.89.76,1.22.24.41.8.71,1.67.91.87.2,1.73.3,2.59.3h21.42c1.42,0,2.58-.08,3.47-.24.89-.16,1.66-.39,2.31-.67.49-.24.88-.51,1.19-.79.3-.28.7-.43,1.19-.43.12,0,.22.15.3.46.08.3.12.62.12.94,0,.2-.03.49-.09.85-.06.36-.11.65-.15.85-.12.73-.23,1.26-.33,1.58-.1.33-.17.61-.21.85-.04.24-.06.63-.06,1.16v.73c0,.37-.08.78-.24,1.25-.16.47-.41.7-.73.7-.28,0-.51-.22-.67-.67-.16-.45-.33-1.05-.49-1.83-.16-.85-.65-1.53-1.46-2.04-.81-.51-2.19-.76-4.14-.76h-6.14c-.89,0-1.56.12-2.01.36-.45.24-.73.85-.85,1.83-.12.97-.18,2.58-.18,4.81v23.91c0,1.46.43,2.55,1.28,3.26.85.71,2.03,1.21,3.53,1.49.69.12,1.2.26,1.52.43.32.16.49.39.49.67,0,.24-.16.42-.49.52-.33.1-.75.15-1.28.15-1.1,0-2-.03-2.71-.09-.71-.06-1.39-.11-2.04-.15-.65-.04-1.44-.06-2.37-.06-1.01,0-1.9.02-2.65.06-.75.04-1.52.09-2.31.15-.79.06-1.73.09-2.83.09Z"/><path class="cls-1" d="M553.48,42.53c-.53,0-.95-.05-1.28-.15-.33-.1-.49-.27-.49-.52,0-.49.67-.85,2.01-1.1,1.54-.28,2.68-.75,3.41-1.4.73-.65,1.1-1.7,1.1-3.16V8.82c0-1.46-.29-2.49-.88-3.1s-1.65-1.05-3.19-1.34c-.69-.12-1.2-.28-1.52-.49-.33-.2-.49-.45-.49-.73,0-.24.16-.42.49-.52.32-.1.75-.15,1.28-.15,1.54,0,2.85.02,3.92.06,1.07.04,2.13.07,3.16.09,1.03.02,2.26.03,3.68.03,1.34,0,2.75,0,4.23-.03,1.48-.02,2.85-.03,4.11-.03,1.38-.04,2.54-.07,3.5-.09.95-.02,1.51-.03,1.67-.03.2,0,.43.04.67.12.24.08.38.22.43.43.2,1.14.41,2.26.61,3.38.2,1.12.3,2.08.3,2.89,0,.36-.09.61-.27.73-.18.12-.38.18-.58.18s-.35-.05-.43-.15c-.08-.1-.16-.25-.24-.46-.2-.69-.41-1.35-.61-1.98-.2-.63-.45-1.08-.73-1.37-.57-.65-1.2-1.08-1.89-1.31-.69-.22-1.42-.33-2.19-.33h-7.97c-.33,0-.77.18-1.34.55-.57.37-.85.83-.85,1.4v12.9c0,.36.11.68.33.94.22.26.48.4.76.4h6.02c1.18,0,1.99-.21,2.43-.64.45-.43.81-1.21,1.1-2.34.24-.89.61-1.34,1.09-1.34.16,0,.33.08.52.24.18.16.27.41.27.73,0,.16-.01.53-.03,1.1-.02.57-.05,1.16-.09,1.76-.04.61-.06,1.08-.06,1.4,0,.41,0,.94.03,1.61s.04,1.31.06,1.92c.02.61.03.99.03,1.16,0,.28-.03.53-.09.73-.06.2-.21.3-.46.3-.61,0-1.08-.65-1.4-1.95-.24-.93-.57-1.62-.97-2.07-.41-.45-1.01-.67-1.83-.67h-5.66c-.69,0-1.21.09-1.55.27s-.52.62-.52,1.31v11.68c0,1.54.32,2.61.97,3.19.65.59,1.66.88,3.04.88h4.5c1.3,0,2.38-.07,3.25-.21.87-.14,1.63-.42,2.28-.82.65-.45,1.23-1.03,1.73-1.76.51-.73,1.08-1.7,1.73-2.92.12-.24.26-.45.43-.61.16-.16.34-.22.55-.18.2.04.37.13.49.27.12.14.18.33.18.58,0,.36-.1,1-.3,1.92-.2.91-.46,1.86-.76,2.83-.3.97-.58,1.74-.82,2.31-.12.28-.23.53-.33.73-.1.2-.27.3-.52.3-1.95,0-3.75-.02-5.41-.06-1.66-.04-3.25-.08-4.75-.12-1.5-.04-2.97-.08-4.41-.12-1.44-.04-2.93-.06-4.47-.06-.89,0-1.66.03-2.31.09-.65.06-1.32.12-2.01.18-.69.06-1.58.09-2.68.09Z"/><path class="cls-1" d="M608.84,43.14c-2.07,0-3.9-.38-5.51-1.13-1.6-.75-2.85-1.77-3.74-3.07-.89-1.3-1.34-2.78-1.34-4.44,0-3.24.96-5.9,2.89-7.97,1.93-2.07,4.35-3.77,7.27-5.11l1.22-.55-.91-.97c-.37-.45-.86-.99-1.49-1.64-.63-.65-1.2-1.43-1.7-2.34-.51-.91-.76-1.96-.76-3.13,0-1.42.42-2.66,1.25-3.71.83-1.05,1.9-1.87,3.19-2.43,1.3-.57,2.64-.85,4.02-.85,1.74,0,3.18.4,4.32,1.19s1.99,1.76,2.56,2.92c.57,1.16.85,2.26.85,3.32.04,1.54-.51,2.88-1.64,4.02-1.14,1.14-2.72,2.07-4.75,2.8l-.85.3.79.85c1.54,1.66,2.94,3.1,4.2,4.32,1.26,1.22,2.5,2.72,3.71,4.5l.73,1.1,1.1-1.16c.97-1.05,1.98-2.23,3.01-3.53,1.03-1.3,1.91-2.48,2.62-3.56.71-1.07,1.06-1.75,1.06-2.04,0-.24-.15-.57-.46-.97-.3-.4-.72-.65-1.25-.73-.08-.04-.22-.14-.43-.3-.2-.16-.3-.28-.3-.37,0-.32.19-.52.58-.58.38-.06.64-.09.76-.09s.48.02,1.06.06c.59.04,1.21.09,1.86.15.65.06,1.12.09,1.4.09.61,0,1.28-.07,2.01-.21.73-.14,1.43-.29,2.1-.46.67-.16,1.25-.24,1.73-.24.08,0,.22.06.43.18.2.12.3.24.3.37,0,.24-.18.49-.55.73-.37.24-.69.39-.97.43-.93.04-1.79.25-2.56.64-.77.39-1.4.8-1.89,1.25-.16.12-.63.59-1.4,1.4-.77.81-1.69,1.77-2.77,2.89-1.08,1.12-2.12,2.22-3.13,3.32-1.01,1.1-2.21,2.37-3.59,3.83l1.03,1.46c1.3,1.87,2.58,3.36,3.83,4.47,1.26,1.12,2.66,1.67,4.2,1.67.85,0,1.67-.08,2.46-.24.79-.16,1.55-.45,2.28-.85.16-.08.33-.15.52-.21.18-.06.35-.09.52-.09.28,0,.48.05.58.15.1.1.15.29.15.58,0,.33-.43.81-1.28,1.46-.85.65-1.88,1.24-3.07,1.76-1.2.53-2.36.79-3.5.79-1.5,0-2.76-.25-3.77-.76-1.01-.51-1.94-1.28-2.77-2.31-.83-1.03-1.78-2.36-2.83-3.99l-.79-1.28-.37.37c-1.26,1.38-2.46,2.68-3.62,3.89-1.16,1.22-2.4,2.2-3.74,2.95-1.34.75-2.96,1.13-4.87,1.13ZM610.43,39.18c2.03,0,3.78-.43,5.26-1.28,1.48-.85,2.97-2.07,4.47-3.65l.55-.55-.73-1.16c-1.01-1.54-2.28-3.1-3.8-4.69-1.52-1.58-3.15-3.31-4.9-5.17l-.73-.79-1.28.49c-1.87.73-3.25,1.65-4.17,2.77-.91,1.12-1.5,2.31-1.76,3.59-.26,1.28-.4,2.52-.4,3.74,0,1.87.69,3.45,2.07,4.75,1.38,1.3,3.18,1.95,5.42,1.95ZM612.92,19.35l.79-.36c1.14-.53,1.98-1.37,2.53-2.52.55-1.16.82-2.34.82-3.56,0-1.42-.33-2.7-1-3.83-.67-1.14-1.71-1.7-3.13-1.7-1.22,0-2.29.38-3.22,1.13-.93.75-1.4,1.67-1.4,2.77,0,.81.08,1.54.24,2.19.16.65.51,1.34,1.03,2.07.53.73,1.32,1.66,2.37,2.8l.97,1.03Z"/><path class="cls-1" d="M667.13,42.53c-.53,0-.95-.05-1.28-.15-.33-.1-.49-.27-.49-.52,0-.28.16-.51.49-.67.32-.16.83-.3,1.52-.43,1.54-.28,2.72-.78,3.53-1.49.81-.71,1.22-1.79,1.22-3.26V12.41c0-1.87-.04-3.29-.12-4.29-.08-.99-.21-1.69-.4-2.1-.18-.41-.44-.63-.76-.67-.57-.12-1.17-.19-1.79-.21-.63-.02-1.47-.03-2.52-.03h-2.86c-.97,0-1.94.19-2.89.58-.95.39-1.65.98-2.1,1.79-.12.2-.33.5-.61.88-.28.39-.59.72-.91,1-.33.28-.65.43-.97.43-.16,0-.27-.08-.33-.24-.06-.16-.09-.34-.09-.55,0-.41.1-.81.3-1.22.57-1.18.98-2.22,1.25-3.13.26-.91.48-2,.64-3.25.08-.69.23-1.1.46-1.22s.42-.18.58-.18.42.24.76.73c.34.49.6.89.76,1.22.24.41.8.71,1.67.91.87.2,1.73.3,2.59.3h21.42c1.42,0,2.58-.08,3.47-.24.89-.16,1.66-.39,2.31-.67.49-.24.88-.51,1.19-.79.3-.28.7-.43,1.19-.43.12,0,.22.15.3.46.08.3.12.62.12.94,0,.2-.03.49-.09.85-.06.36-.11.65-.15.85-.12.73-.23,1.26-.33,1.58-.1.33-.17.61-.21.85-.04.24-.06.63-.06,1.16v.73c0,.37-.08.78-.24,1.25-.16.47-.41.7-.73.7-.28,0-.51-.22-.67-.67-.16-.45-.33-1.05-.49-1.83-.16-.85-.65-1.53-1.46-2.04-.81-.51-2.19-.76-4.14-.76h-6.14c-.89,0-1.56.12-2.01.36-.45.24-.73.85-.85,1.83-.12.97-.18,2.58-.18,4.81v23.91c0,1.46.43,2.55,1.28,3.26.85.71,2.03,1.21,3.53,1.49.69.12,1.2.26,1.52.43.32.16.49.39.49.67,0,.24-.16.42-.49.52-.33.1-.75.15-1.28.15-1.1,0-2-.03-2.71-.09-.71-.06-1.39-.11-2.04-.15-.65-.04-1.44-.06-2.37-.06-1.01,0-1.9.02-2.65.06-.75.04-1.52.09-2.31.15-.79.06-1.73.09-2.83.09Z"/><path class="cls-1" d="M697.8,42.53c-.53,0-.95-.05-1.28-.15-.33-.1-.49-.27-.49-.52,0-.49.67-.85,2.01-1.1,1.54-.28,2.72-.75,3.53-1.4.81-.65,1.22-1.68,1.22-3.1V8.76c0-1.42-.29-2.43-.88-3.04-.59-.61-1.65-1.05-3.19-1.34-1.34-.24-2.01-.65-2.01-1.22,0-.24.16-.42.49-.52.32-.1.75-.15,1.28-.15,1.09,0,2,.02,2.71.06.71.04,1.39.07,2.04.09.65.02,1.44.03,2.37.03s1.62,0,2.19-.03c.57-.02,1.18-.05,1.83-.09.65-.04,1.52-.06,2.62-.06.53,0,.95.05,1.28.15.32.1.49.27.49.52,0,.28-.16.53-.49.73-.33.2-.83.36-1.52.49-1.5.28-2.6.73-3.29,1.34-.69.61-1.03,1.62-1.03,3.04v27.5c0,1.42.43,2.45,1.28,3.1.85.65,2.03,1.12,3.53,1.4.69.12,1.2.26,1.52.43.32.16.49.39.49.67,0,.24-.16.42-.49.52-.33.1-.75.15-1.28.15-1.1,0-2-.03-2.71-.09-.71-.06-1.39-.11-2.04-.15-.65-.04-1.44-.06-2.37-.06-1.01,0-1.9.02-2.65.06-.75.04-1.52.09-2.31.15-.79.06-1.73.09-2.83.09Z"/><path class="cls-1" d="M728.58,42.53c-.53,0-.95-.05-1.28-.15-.33-.1-.49-.27-.49-.52,0-.28.16-.51.49-.67.32-.16.83-.3,1.52-.43,1.54-.28,2.72-.78,3.53-1.49.81-.71,1.22-1.79,1.22-3.26V12.41c0-1.87-.04-3.29-.12-4.29-.08-.99-.21-1.69-.4-2.1-.18-.41-.44-.63-.76-.67-.57-.12-1.17-.19-1.79-.21-.63-.02-1.47-.03-2.52-.03h-2.86c-.97,0-1.94.19-2.89.58-.95.39-1.65.98-2.1,1.79-.12.2-.33.5-.61.88-.28.39-.59.72-.91,1-.33.28-.65.43-.97.43-.16,0-.27-.08-.33-.24-.06-.16-.09-.34-.09-.55,0-.41.1-.81.3-1.22.57-1.18.98-2.22,1.25-3.13.26-.91.48-2,.64-3.25.08-.69.23-1.1.46-1.22s.42-.18.58-.18.42.24.76.73c.34.49.6.89.76,1.22.24.41.8.71,1.67.91.87.2,1.73.3,2.59.3h21.42c1.42,0,2.58-.08,3.47-.24.89-.16,1.66-.39,2.31-.67.49-.24.88-.51,1.19-.79.3-.28.7-.43,1.19-.43.12,0,.22.15.3.46.08.3.12.62.12.94,0,.2-.03.49-.09.85-.06.36-.11.65-.15.85-.12.73-.23,1.26-.33,1.58-.1.33-.17.61-.21.85-.04.24-.06.63-.06,1.16v.73c0,.37-.08.78-.24,1.25-.16.47-.41.7-.73.7-.28,0-.51-.22-.67-.67-.16-.45-.33-1.05-.49-1.83-.16-.85-.65-1.53-1.46-2.04-.81-.51-2.19-.76-4.14-.76h-6.14c-.89,0-1.56.12-2.01.36-.45.24-.73.85-.85,1.83-.12.97-.18,2.58-.18,4.81v23.91c0,1.46.43,2.55,1.28,3.26.85.71,2.03,1.21,3.53,1.49.69.12,1.2.26,1.52.43.32.16.49.39.49.67,0,.24-.16.42-.49.52-.33.1-.75.15-1.28.15-1.1,0-2-.03-2.71-.09-.71-.06-1.39-.11-2.04-.15-.65-.04-1.44-.06-2.37-.06-1.01,0-1.9.02-2.65.06-.75.04-1.52.09-2.31.15-.79.06-1.73.09-2.83.09Z"/><path class="cls-1" d="M758.42,42.32c-.3-.14-.46-.31-.46-.52,0-.37.19-.62.58-.76.38-.14.64-.23.76-.27,1.58-.32,2.8-.8,3.65-1.43.85-.63,1.28-1.61,1.28-2.95V8.15c0-.97-.1-1.69-.3-2.16-.2-.47-.57-.81-1.1-1.03-.53-.22-1.3-.42-2.31-.58-1.34-.24-2.01-.65-2.01-1.22,0-.24.16-.42.49-.52.32-.1.75-.15,1.28-.15,1.09,0,1.98.02,2.65.06.67.04,1.31.07,1.92.09.61.02,1.36.03,2.25.03,1.01,0,1.89,0,2.62-.03.73-.02,1.48-.05,2.25-.09.77-.04,1.7-.06,2.8-.06.53,0,.95.05,1.28.15.32.1.49.27.49.52,0,.28-.16.53-.49.73-.33.2-.83.36-1.52.49-1.5.28-2.78.62-3.83,1-1.05.39-1.58,1.17-1.58,2.34v28.66c0,1.26.28,2.19.85,2.8.57.61,1.84.91,3.83.91h7.54c1.1,0,2.06-.17,2.89-.52.83-.34,1.45-.7,1.86-1.06.81-.69,1.41-1.31,1.79-1.86.38-.55.84-1.37,1.37-2.46.08-.24.25-.61.52-1.1s.54-.73.82-.73c.24,0,.43.12.55.37.12.24.18.49.18.73,0,.04-.01.09-.03.15-.02.06-.03.11-.03.15-.28,1.06-.54,2.01-.76,2.86-.22.85-.41,1.66-.55,2.43-.14.77-.25,1.58-.33,2.43-.04.28-.11.53-.21.73s-.31.3-.64.3c-2.03,0-3.98-.02-5.84-.06-1.87-.04-3.66-.07-5.38-.09-1.72-.02-3.38-.05-4.96-.09-1.58-.04-3.14-.06-4.69-.06-1.01,0-2.16.02-3.44.06-1.28.04-2.87.12-4.78.24-.53,0-.94-.07-1.25-.21Z"/><path class="cls-1" d="M795.87,42.53c-.53,0-.95-.05-1.28-.15-.33-.1-.49-.27-.49-.52,0-.49.67-.85,2.01-1.1,1.54-.28,2.68-.75,3.41-1.4.73-.65,1.1-1.7,1.1-3.16V8.82c0-1.46-.29-2.49-.88-3.1s-1.65-1.05-3.19-1.34c-.69-.12-1.2-.28-1.52-.49-.33-.2-.49-.45-.49-.73,0-.24.16-.42.49-.52.32-.1.75-.15,1.28-.15,1.54,0,2.85.02,3.92.06,1.07.04,2.13.07,3.16.09,1.03.02,2.26.03,3.68.03,1.34,0,2.75,0,4.23-.03,1.48-.02,2.85-.03,4.11-.03,1.38-.04,2.54-.07,3.5-.09.95-.02,1.51-.03,1.67-.03.2,0,.43.04.67.12.24.08.38.22.43.43.2,1.14.41,2.26.61,3.38.2,1.12.3,2.08.3,2.89,0,.36-.09.61-.27.73-.18.12-.38.18-.58.18s-.35-.05-.43-.15c-.08-.1-.16-.25-.24-.46-.2-.69-.41-1.35-.61-1.98-.2-.63-.45-1.08-.73-1.37-.57-.65-1.2-1.08-1.89-1.31-.69-.22-1.42-.33-2.19-.33h-7.97c-.33,0-.77.18-1.34.55-.57.37-.85.83-.85,1.4v12.9c0,.36.11.68.33.94.22.26.48.4.76.4h6.02c1.18,0,1.99-.21,2.43-.64.45-.43.81-1.21,1.1-2.34.24-.89.61-1.34,1.09-1.34.16,0,.33.08.52.24.18.16.27.41.27.73,0,.16-.01.53-.03,1.1-.02.57-.05,1.16-.09,1.76-.04.61-.06,1.08-.06,1.4,0,.41,0,.94.03,1.61s.04,1.31.06,1.92c.02.61.03.99.03,1.16,0,.28-.03.53-.09.73-.06.2-.21.3-.46.3-.61,0-1.08-.65-1.4-1.95-.24-.93-.57-1.62-.97-2.07-.41-.45-1.01-.67-1.83-.67h-5.66c-.69,0-1.21.09-1.55.27s-.52.62-.52,1.31v11.68c0,1.54.32,2.61.97,3.19.65.59,1.66.88,3.04.88h4.5c1.3,0,2.38-.07,3.25-.21.87-.14,1.63-.42,2.28-.82.65-.45,1.23-1.03,1.73-1.76.51-.73,1.08-1.7,1.73-2.92.12-.24.26-.45.43-.61.16-.16.34-.22.55-.18.2.04.37.13.49.27.12.14.18.33.18.58,0,.36-.1,1-.3,1.92-.2.91-.46,1.86-.76,2.83-.3.97-.58,1.74-.82,2.31-.12.28-.23.53-.33.73-.1.2-.27.3-.52.3-1.95,0-3.75-.02-5.41-.06-1.66-.04-3.25-.08-4.75-.12-1.5-.04-2.97-.08-4.41-.12-1.44-.04-2.93-.06-4.47-.06-.89,0-1.66.03-2.31.09-.65.06-1.32.12-2.01.18-.69.06-1.58.09-2.68.09Z"/></g></svg>